%TF.GenerationSoftware,KiCad,Pcbnew,8.0.9*%
%TF.CreationDate,2025-09-25T17:08:19+07:00*%
%TF.ProjectId,_autosave-CAN_Shield,5f617574-6f73-4617-9665-2d43414e5f53,rev?*%
%TF.SameCoordinates,Original*%
%TF.FileFunction,Legend,Bot*%
%TF.FilePolarity,Positive*%
%FSLAX46Y46*%
G04 Gerber Fmt 4.6, Leading zero omitted, Abs format (unit mm)*
G04 Created by KiCad (PCBNEW 8.0.9) date 2025-09-25 17:08:19*
%MOMM*%
%LPD*%
G01*
G04 APERTURE LIST*
%ADD10C,0.150000*%
%ADD11C,0.120000*%
%ADD12O,2.100000X2.100000*%
%ADD13C,2.700000*%
%ADD14R,1.700000X1.700000*%
%ADD15O,1.700000X1.700000*%
G04 APERTURE END LIST*
D10*
X5559466Y48855981D02*
X5559466Y48141696D01*
X5559466Y48141696D02*
X5511847Y47998839D01*
X5511847Y47998839D02*
X5416609Y47903600D01*
X5416609Y47903600D02*
X5273752Y47855981D01*
X5273752Y47855981D02*
X5178514Y47855981D01*
X6559466Y47855981D02*
X5988038Y47855981D01*
X6273752Y47855981D02*
X6273752Y48855981D01*
X6273752Y48855981D02*
X6178514Y48713124D01*
X6178514Y48713124D02*
X6083276Y48617886D01*
X6083276Y48617886D02*
X5988038Y48570267D01*
D11*
%TO.C,J1*%
X7040000Y55100000D02*
X7040000Y52500000D01*
X7040000Y55100000D02*
X57960000Y55100000D01*
X7040000Y52500000D02*
X9640000Y52500000D01*
X7040000Y51230000D02*
X7040000Y49900000D01*
X7040000Y49900000D02*
X8370000Y49900000D01*
X9640000Y52500000D02*
X9640000Y49900000D01*
X9640000Y49900000D02*
X57960000Y49900000D01*
X57960000Y55100000D02*
X57960000Y49900000D01*
%TD*%
%LPC*%
D12*
%TO.C,U1*%
X12801600Y5994400D03*
X17881600Y5994400D03*
X22961600Y5994400D03*
X28041600Y5994400D03*
X33121600Y5994400D03*
X38201600Y5994400D03*
X43281600Y5994400D03*
X48361600Y5994400D03*
X53441600Y5994400D03*
%TD*%
D13*
%TO.C,MH2*%
X61500000Y52500000D03*
%TD*%
%TO.C,MH3*%
X3500000Y3500000D03*
%TD*%
%TO.C,MH1*%
X3500000Y52500000D03*
%TD*%
%TO.C,MH4*%
X61500000Y3500000D03*
%TD*%
D14*
%TO.C,J1*%
X8370000Y51230000D03*
D15*
X8370000Y53770000D03*
X10910000Y51230000D03*
X10910000Y53770000D03*
X13450000Y51230000D03*
X13450000Y53770000D03*
X15990000Y51230000D03*
X15990000Y53770000D03*
X18530000Y51230000D03*
X18530000Y53770000D03*
X21070000Y51230000D03*
X21070000Y53770000D03*
X23610000Y51230000D03*
X23610000Y53770000D03*
X26150000Y51230000D03*
X26150000Y53770000D03*
X28690000Y51230000D03*
X28690000Y53770000D03*
X31230000Y51230000D03*
X31230000Y53770000D03*
X33770000Y51230000D03*
X33770000Y53770000D03*
X36310000Y51230000D03*
X36310000Y53770000D03*
X38850000Y51230000D03*
X38850000Y53770000D03*
X41390000Y51230000D03*
X41390000Y53770000D03*
X43930000Y51230000D03*
X43930000Y53770000D03*
X46470000Y51230000D03*
X46470000Y53770000D03*
X49010000Y51230000D03*
X49010000Y53770000D03*
X51550000Y51230000D03*
X51550000Y53770000D03*
X54090000Y51230000D03*
X54090000Y53770000D03*
X56630000Y51230000D03*
X56630000Y53770000D03*
%TD*%
%LPD*%
M02*
