%TF.GenerationSoftware,KiCad,Pcbnew,8.0.9*%
%TF.CreationDate,2025-09-25T17:08:19+07:00*%
%TF.ProjectId,_autosave-CAN_Shield,5f617574-6f73-4617-9665-2d43414e5f53,rev?*%
%TF.SameCoordinates,Original*%
%TF.FileFunction,Soldermask,Top*%
%TF.FilePolarity,Negative*%
%FSLAX46Y46*%
G04 Gerber Fmt 4.6, Leading zero omitted, Abs format (unit mm)*
G04 Created by KiCad (PCBNEW 8.0.9) date 2025-09-25 17:08:19*
%MOMM*%
%LPD*%
G01*
G04 APERTURE LIST*
G04 Aperture macros list*
%AMRoundRect*
0 Rectangle with rounded corners*
0 $1 Rounding radius*
0 $2 $3 $4 $5 $6 $7 $8 $9 X,Y pos of 4 corners*
0 Add a 4 corners polygon primitive as box body*
4,1,4,$2,$3,$4,$5,$6,$7,$8,$9,$2,$3,0*
0 Add four circle primitives for the rounded corners*
1,1,$1+$1,$2,$3*
1,1,$1+$1,$4,$5*
1,1,$1+$1,$6,$7*
1,1,$1+$1,$8,$9*
0 Add four rect primitives between the rounded corners*
20,1,$1+$1,$2,$3,$4,$5,0*
20,1,$1+$1,$4,$5,$6,$7,0*
20,1,$1+$1,$6,$7,$8,$9,0*
20,1,$1+$1,$8,$9,$2,$3,0*%
G04 Aperture macros list end*
%ADD10O,2.100000X2.100000*%
%ADD11C,2.700000*%
%ADD12RoundRect,0.159000X0.159000X0.189000X-0.159000X0.189000X-0.159000X-0.189000X0.159000X-0.189000X0*%
%ADD13RoundRect,0.244000X-0.244000X-0.269000X0.244000X-0.269000X0.244000X0.269000X-0.244000X0.269000X0*%
%ADD14O,2.201600X0.661600*%
%ADD15RoundRect,0.250000X0.450000X0.350000X-0.450000X0.350000X-0.450000X-0.350000X0.450000X-0.350000X0*%
%ADD16RoundRect,0.219000X0.219000X0.294000X-0.219000X0.294000X-0.219000X-0.294000X0.219000X-0.294000X0*%
%ADD17O,2.050000X0.590000*%
%ADD18RoundRect,0.159000X-0.159000X-0.189000X0.159000X-0.189000X0.159000X0.189000X-0.159000X0.189000X0*%
%ADD19RoundRect,0.244000X0.269000X-0.244000X0.269000X0.244000X-0.269000X0.244000X-0.269000X-0.244000X0*%
%ADD20RoundRect,0.219000X-0.219000X-0.294000X0.219000X-0.294000X0.219000X0.294000X-0.219000X0.294000X0*%
%ADD21RoundRect,0.159000X0.189000X-0.159000X0.189000X0.159000X-0.189000X0.159000X-0.189000X-0.159000X0*%
%ADD22RoundRect,0.219000X0.294000X-0.219000X0.294000X0.219000X-0.294000X0.219000X-0.294000X-0.219000X0*%
%ADD23R,1.700000X1.700000*%
%ADD24O,1.700000X1.700000*%
G04 APERTURE END LIST*
D10*
%TO.C,U1*%
X12801600Y5994400D03*
X17881600Y5994400D03*
X22961600Y5994400D03*
X28041600Y5994400D03*
X33121600Y5994400D03*
X38201600Y5994400D03*
X43281600Y5994400D03*
X48361600Y5994400D03*
X53441600Y5994400D03*
%TD*%
D11*
%TO.C,MH2*%
X61500000Y52500000D03*
%TD*%
D12*
%TO.C,C5*%
X45483400Y18288000D03*
X44483400Y18288000D03*
%TD*%
D13*
%TO.C,C7*%
X29682000Y34036000D03*
X31242000Y34036000D03*
%TD*%
D14*
%TO.C,U2*%
X43154100Y34163000D03*
X43154100Y35433000D03*
X43154100Y36703000D03*
X43154100Y37973000D03*
X43154100Y39243000D03*
X43154100Y40513000D03*
X43154100Y41783000D03*
X43154100Y43053000D03*
X43154100Y44323000D03*
X33553900Y44323000D03*
X33553900Y43053000D03*
X33553900Y41783000D03*
X33553900Y40513000D03*
X33553900Y39243000D03*
X33553900Y37973000D03*
X33553900Y36703000D03*
X33553900Y35433000D03*
X33553900Y34163000D03*
%TD*%
D15*
%TO.C,X1*%
X50122000Y43552000D03*
X47922000Y43552000D03*
X47922000Y41792000D03*
X50122000Y41792000D03*
%TD*%
D11*
%TO.C,MH3*%
X3500000Y3500000D03*
%TD*%
%TO.C,MH1*%
X3500000Y52500000D03*
%TD*%
D16*
%TO.C,R5*%
X48920400Y18288000D03*
X47280400Y18288000D03*
%TD*%
D17*
%TO.C,U4*%
X47623600Y31729600D03*
X47623600Y30459600D03*
X47623600Y29179600D03*
X47623600Y27909600D03*
X53163600Y27909600D03*
X53163600Y29179600D03*
X53163600Y30459600D03*
X53163600Y31729600D03*
%TD*%
D18*
%TO.C,C4*%
X55972200Y18237200D03*
X56972200Y18237200D03*
%TD*%
D19*
%TO.C,C3*%
X44907200Y28988800D03*
X44907200Y30548800D03*
%TD*%
D20*
%TO.C,R2*%
X52604200Y18237200D03*
X54244200Y18237200D03*
%TD*%
D21*
%TO.C,C1*%
X51891000Y42485100D03*
X51891000Y43485100D03*
%TD*%
D18*
%TO.C,R3*%
X30750000Y35433000D03*
X31750000Y35433000D03*
%TD*%
D11*
%TO.C,MH4*%
X61500000Y3500000D03*
%TD*%
D22*
%TO.C,R4*%
X55803800Y28923600D03*
X55803800Y30563600D03*
%TD*%
D21*
%TO.C,R1*%
X53136800Y33358200D03*
X53136800Y34358200D03*
%TD*%
D12*
%TO.C,C2*%
X49649000Y40386000D03*
X48649000Y40386000D03*
%TD*%
D23*
%TO.C,J1*%
X8370000Y51230000D03*
D24*
X8370000Y53770000D03*
X10910000Y51230000D03*
X10910000Y53770000D03*
X13450000Y51230000D03*
X13450000Y53770000D03*
X15990000Y51230000D03*
X15990000Y53770000D03*
X18530000Y51230000D03*
X18530000Y53770000D03*
X21070000Y51230000D03*
X21070000Y53770000D03*
X23610000Y51230000D03*
X23610000Y53770000D03*
X26150000Y51230000D03*
X26150000Y53770000D03*
X28690000Y51230000D03*
X28690000Y53770000D03*
X31230000Y51230000D03*
X31230000Y53770000D03*
X33770000Y51230000D03*
X33770000Y53770000D03*
X36310000Y51230000D03*
X36310000Y53770000D03*
X38850000Y51230000D03*
X38850000Y53770000D03*
X41390000Y51230000D03*
X41390000Y53770000D03*
X43930000Y51230000D03*
X43930000Y53770000D03*
X46470000Y51230000D03*
X46470000Y53770000D03*
X49010000Y51230000D03*
X49010000Y53770000D03*
X51550000Y51230000D03*
X51550000Y53770000D03*
X54090000Y51230000D03*
X54090000Y53770000D03*
X56630000Y51230000D03*
X56630000Y53770000D03*
%TD*%
M02*
