M48
; DRILL file {KiCad 8.0.9} date 2025-09-25T17:08:19+0700
; FORMAT={-:-/ absolute / inch / decimal}
; #@! TF.CreationDate,2025-09-25T17:08:19+07:00
; #@! TF.GenerationSoftware,Kicad,Pcbnew,8.0.9
; #@! TF.FileFunction,Plated,1,2,PTH
FMAT,2
INCH
; #@! TA.AperFunction,Plated,PTH,ViaDrill
T1C0.0118
; #@! TA.AperFunction,Plated,PTH,ComponentDrill
T2C0.0394
; #@! TA.AperFunction,Plated,PTH,ComponentDrill
T3C0.0551
%
G90
G05
T1
X1.168Y1.394
X1.4Y1.595
X1.4887Y1.6313
X1.7Y1.79
X1.706Y0.72
X1.7073Y1.2034
X2.045Y1.62
X2.092Y1.398
X2.288Y0.718
T2
X0.3295Y2.1169
X0.3295Y2.0169
X0.4295Y2.1169
X0.4295Y2.0169
X0.5295Y2.1169
X0.5295Y2.0169
X0.6295Y2.1169
X0.6295Y2.0169
X0.7295Y2.1169
X0.7295Y2.0169
X0.8295Y2.1169
X0.8295Y2.0169
X0.9295Y2.1169
X0.9295Y2.0169
X1.0295Y2.1169
X1.0295Y2.0169
X1.1295Y2.1169
X1.1295Y2.0169
X1.2295Y2.1169
X1.2295Y2.0169
X1.3295Y2.1169
X1.3295Y2.0169
X1.4295Y2.1169
X1.4295Y2.0169
X1.5295Y2.1169
X1.5295Y2.0169
X1.6295Y2.1169
X1.6295Y2.0169
X1.7295Y2.1169
X1.7295Y2.0169
X1.8295Y2.1169
X1.8295Y2.0169
X1.9295Y2.1169
X1.9295Y2.0169
X2.0295Y2.1169
X2.0295Y2.0169
X2.1295Y2.1169
X2.1295Y2.0169
X2.2295Y2.1169
X2.2295Y2.0169
T3
X0.504Y0.236
X0.704Y0.236
X0.904Y0.236
X1.104Y0.236
X1.304Y0.236
X1.504Y0.236
X1.704Y0.236
X1.904Y0.236
X2.104Y0.236
M30
