%TF.GenerationSoftware,KiCad,Pcbnew,8.0.9*%
%TF.CreationDate,2025-09-25T17:08:19+07:00*%
%TF.ProjectId,_autosave-CAN_Shield,5f617574-6f73-4617-9665-2d43414e5f53,rev?*%
%TF.SameCoordinates,Original*%
%TF.FileFunction,Legend,Top*%
%TF.FilePolarity,Positive*%
%FSLAX46Y46*%
G04 Gerber Fmt 4.6, Leading zero omitted, Abs format (unit mm)*
G04 Created by KiCad (PCBNEW 8.0.9) date 2025-09-25 17:08:19*
%MOMM*%
%LPD*%
G01*
G04 APERTURE LIST*
G04 Aperture macros list*
%AMRoundRect*
0 Rectangle with rounded corners*
0 $1 Rounding radius*
0 $2 $3 $4 $5 $6 $7 $8 $9 X,Y pos of 4 corners*
0 Add a 4 corners polygon primitive as box body*
4,1,4,$2,$3,$4,$5,$6,$7,$8,$9,$2,$3,0*
0 Add four circle primitives for the rounded corners*
1,1,$1+$1,$2,$3*
1,1,$1+$1,$4,$5*
1,1,$1+$1,$6,$7*
1,1,$1+$1,$8,$9*
0 Add four rect primitives between the rounded corners*
20,1,$1+$1,$2,$3,$4,$5,0*
20,1,$1+$1,$4,$5,$6,$7,0*
20,1,$1+$1,$6,$7,$8,$9,0*
20,1,$1+$1,$8,$9,$2,$3,0*%
G04 Aperture macros list end*
%ADD10C,0.150000*%
%ADD11C,0.254000*%
%ADD12C,0.000000*%
%ADD13O,2.100000X2.100000*%
%ADD14C,2.700000*%
%ADD15RoundRect,0.159000X0.159000X0.189000X-0.159000X0.189000X-0.159000X-0.189000X0.159000X-0.189000X0*%
%ADD16RoundRect,0.244000X-0.244000X-0.269000X0.244000X-0.269000X0.244000X0.269000X-0.244000X0.269000X0*%
%ADD17O,2.201600X0.661600*%
%ADD18RoundRect,0.250000X0.450000X0.350000X-0.450000X0.350000X-0.450000X-0.350000X0.450000X-0.350000X0*%
%ADD19RoundRect,0.219000X0.219000X0.294000X-0.219000X0.294000X-0.219000X-0.294000X0.219000X-0.294000X0*%
%ADD20O,2.050000X0.590000*%
%ADD21RoundRect,0.159000X-0.159000X-0.189000X0.159000X-0.189000X0.159000X0.189000X-0.159000X0.189000X0*%
%ADD22RoundRect,0.244000X0.269000X-0.244000X0.269000X0.244000X-0.269000X0.244000X-0.269000X-0.244000X0*%
%ADD23RoundRect,0.219000X-0.219000X-0.294000X0.219000X-0.294000X0.219000X0.294000X-0.219000X0.294000X0*%
%ADD24RoundRect,0.159000X0.189000X-0.159000X0.189000X0.159000X-0.189000X0.159000X-0.189000X-0.159000X0*%
%ADD25RoundRect,0.219000X0.294000X-0.219000X0.294000X0.219000X-0.294000X0.219000X-0.294000X-0.219000X0*%
%ADD26R,1.700000X1.700000*%
%ADD27O,1.700000X1.700000*%
G04 APERTURE END LIST*
D10*
X27411073Y15472229D02*
X28015835Y15895563D01*
X27411073Y16197944D02*
X28681073Y16197944D01*
X28681073Y16197944D02*
X28681073Y15714134D01*
X28681073Y15714134D02*
X28620597Y15593182D01*
X28620597Y15593182D02*
X28560121Y15532705D01*
X28560121Y15532705D02*
X28439169Y15472229D01*
X28439169Y15472229D02*
X28257740Y15472229D01*
X28257740Y15472229D02*
X28136788Y15532705D01*
X28136788Y15532705D02*
X28076311Y15593182D01*
X28076311Y15593182D02*
X28015835Y15714134D01*
X28015835Y15714134D02*
X28015835Y16197944D01*
X28681073Y15048896D02*
X27411073Y14202229D01*
X28681073Y14202229D02*
X27411073Y15048896D01*
X27411073Y13718420D02*
X28681073Y13718420D01*
X28681073Y13718420D02*
X28681073Y13416039D01*
X28681073Y13416039D02*
X28620597Y13234610D01*
X28620597Y13234610D02*
X28499645Y13113658D01*
X28499645Y13113658D02*
X28378692Y13053181D01*
X28378692Y13053181D02*
X28136788Y12992705D01*
X28136788Y12992705D02*
X27955359Y12992705D01*
X27955359Y12992705D02*
X27713454Y13053181D01*
X27713454Y13053181D02*
X27592502Y13113658D01*
X27592502Y13113658D02*
X27471550Y13234610D01*
X27471550Y13234610D02*
X27411073Y13416039D01*
X27411073Y13416039D02*
X27411073Y13718420D01*
X28681073Y12206515D02*
X28681073Y12085562D01*
X28681073Y12085562D02*
X28620597Y11964610D01*
X28620597Y11964610D02*
X28560121Y11904134D01*
X28560121Y11904134D02*
X28439169Y11843658D01*
X28439169Y11843658D02*
X28197264Y11783181D01*
X28197264Y11783181D02*
X27894883Y11783181D01*
X27894883Y11783181D02*
X27652978Y11843658D01*
X27652978Y11843658D02*
X27532026Y11904134D01*
X27532026Y11904134D02*
X27471550Y11964610D01*
X27471550Y11964610D02*
X27411073Y12085562D01*
X27411073Y12085562D02*
X27411073Y12206515D01*
X27411073Y12206515D02*
X27471550Y12327467D01*
X27471550Y12327467D02*
X27532026Y12387943D01*
X27532026Y12387943D02*
X27652978Y12448420D01*
X27652978Y12448420D02*
X27894883Y12508896D01*
X27894883Y12508896D02*
X28197264Y12508896D01*
X28197264Y12508896D02*
X28439169Y12448420D01*
X28439169Y12448420D02*
X28560121Y12387943D01*
X28560121Y12387943D02*
X28620597Y12327467D01*
X28620597Y12327467D02*
X28681073Y12206515D01*
X12231550Y16421705D02*
X12171073Y16240276D01*
X12171073Y16240276D02*
X12171073Y15937895D01*
X12171073Y15937895D02*
X12231550Y15816943D01*
X12231550Y15816943D02*
X12292026Y15756467D01*
X12292026Y15756467D02*
X12412978Y15695990D01*
X12412978Y15695990D02*
X12533930Y15695990D01*
X12533930Y15695990D02*
X12654883Y15756467D01*
X12654883Y15756467D02*
X12715359Y15816943D01*
X12715359Y15816943D02*
X12775835Y15937895D01*
X12775835Y15937895D02*
X12836311Y16179800D01*
X12836311Y16179800D02*
X12896788Y16300752D01*
X12896788Y16300752D02*
X12957264Y16361229D01*
X12957264Y16361229D02*
X13078216Y16421705D01*
X13078216Y16421705D02*
X13199169Y16421705D01*
X13199169Y16421705D02*
X13320121Y16361229D01*
X13320121Y16361229D02*
X13380597Y16300752D01*
X13380597Y16300752D02*
X13441073Y16179800D01*
X13441073Y16179800D02*
X13441073Y15877419D01*
X13441073Y15877419D02*
X13380597Y15695990D01*
X12171073Y15151705D02*
X13441073Y15151705D01*
X13441073Y15151705D02*
X13441073Y14849324D01*
X13441073Y14849324D02*
X13380597Y14667895D01*
X13380597Y14667895D02*
X13259645Y14546943D01*
X13259645Y14546943D02*
X13138692Y14486466D01*
X13138692Y14486466D02*
X12896788Y14425990D01*
X12896788Y14425990D02*
X12715359Y14425990D01*
X12715359Y14425990D02*
X12473454Y14486466D01*
X12473454Y14486466D02*
X12352502Y14546943D01*
X12352502Y14546943D02*
X12231550Y14667895D01*
X12231550Y14667895D02*
X12171073Y14849324D01*
X12171073Y14849324D02*
X12171073Y15151705D01*
X12533930Y13942181D02*
X12533930Y13337419D01*
X12171073Y14063133D02*
X13441073Y13639800D01*
X13441073Y13639800D02*
X12171073Y13216466D01*
X12171073Y12127895D02*
X12171073Y12853610D01*
X12171073Y12490753D02*
X13441073Y12490753D01*
X13441073Y12490753D02*
X13259645Y12611705D01*
X13259645Y12611705D02*
X13138692Y12732657D01*
X13138692Y12732657D02*
X13078216Y12853610D01*
X33852997Y15380305D02*
X33913473Y15501258D01*
X33913473Y15501258D02*
X33913473Y15682686D01*
X33913473Y15682686D02*
X33852997Y15864115D01*
X33852997Y15864115D02*
X33732045Y15985067D01*
X33732045Y15985067D02*
X33611092Y16045544D01*
X33611092Y16045544D02*
X33369188Y16106020D01*
X33369188Y16106020D02*
X33187759Y16106020D01*
X33187759Y16106020D02*
X32945854Y16045544D01*
X32945854Y16045544D02*
X32824902Y15985067D01*
X32824902Y15985067D02*
X32703950Y15864115D01*
X32703950Y15864115D02*
X32643473Y15682686D01*
X32643473Y15682686D02*
X32643473Y15561734D01*
X32643473Y15561734D02*
X32703950Y15380305D01*
X32703950Y15380305D02*
X32764426Y15319829D01*
X32764426Y15319829D02*
X33187759Y15319829D01*
X33187759Y15319829D02*
X33187759Y15561734D01*
X32643473Y14775544D02*
X33913473Y14775544D01*
X33913473Y14775544D02*
X33913473Y14291734D01*
X33913473Y14291734D02*
X33852997Y14170782D01*
X33852997Y14170782D02*
X33792521Y14110305D01*
X33792521Y14110305D02*
X33671569Y14049829D01*
X33671569Y14049829D02*
X33490140Y14049829D01*
X33490140Y14049829D02*
X33369188Y14110305D01*
X33369188Y14110305D02*
X33308711Y14170782D01*
X33308711Y14170782D02*
X33248235Y14291734D01*
X33248235Y14291734D02*
X33248235Y14775544D01*
X32643473Y12840305D02*
X32643473Y13566020D01*
X32643473Y13203163D02*
X33913473Y13203163D01*
X33913473Y13203163D02*
X33732045Y13324115D01*
X33732045Y13324115D02*
X33611092Y13445067D01*
X33611092Y13445067D02*
X33550616Y13566020D01*
X33913473Y12416972D02*
X33913473Y11570305D01*
X33913473Y11570305D02*
X32643473Y12114591D01*
X38932997Y15380305D02*
X38993473Y15501258D01*
X38993473Y15501258D02*
X38993473Y15682686D01*
X38993473Y15682686D02*
X38932997Y15864115D01*
X38932997Y15864115D02*
X38812045Y15985067D01*
X38812045Y15985067D02*
X38691092Y16045544D01*
X38691092Y16045544D02*
X38449188Y16106020D01*
X38449188Y16106020D02*
X38267759Y16106020D01*
X38267759Y16106020D02*
X38025854Y16045544D01*
X38025854Y16045544D02*
X37904902Y15985067D01*
X37904902Y15985067D02*
X37783950Y15864115D01*
X37783950Y15864115D02*
X37723473Y15682686D01*
X37723473Y15682686D02*
X37723473Y15561734D01*
X37723473Y15561734D02*
X37783950Y15380305D01*
X37783950Y15380305D02*
X37844426Y15319829D01*
X37844426Y15319829D02*
X38267759Y15319829D01*
X38267759Y15319829D02*
X38267759Y15561734D01*
X37723473Y14775544D02*
X38993473Y14775544D01*
X38993473Y14775544D02*
X38993473Y14291734D01*
X38993473Y14291734D02*
X38932997Y14170782D01*
X38932997Y14170782D02*
X38872521Y14110305D01*
X38872521Y14110305D02*
X38751569Y14049829D01*
X38751569Y14049829D02*
X38570140Y14049829D01*
X38570140Y14049829D02*
X38449188Y14110305D01*
X38449188Y14110305D02*
X38388711Y14170782D01*
X38388711Y14170782D02*
X38328235Y14291734D01*
X38328235Y14291734D02*
X38328235Y14775544D01*
X38872521Y13566020D02*
X38932997Y13505544D01*
X38932997Y13505544D02*
X38993473Y13384591D01*
X38993473Y13384591D02*
X38993473Y13082210D01*
X38993473Y13082210D02*
X38932997Y12961258D01*
X38932997Y12961258D02*
X38872521Y12900782D01*
X38872521Y12900782D02*
X38751569Y12840305D01*
X38751569Y12840305D02*
X38630616Y12840305D01*
X38630616Y12840305D02*
X38449188Y12900782D01*
X38449188Y12900782D02*
X37723473Y13626496D01*
X37723473Y13626496D02*
X37723473Y12840305D01*
X38993473Y12416972D02*
X38993473Y11570305D01*
X38993473Y11570305D02*
X37723473Y12114591D01*
X23651873Y16278981D02*
X23651873Y15553267D01*
X22381873Y15916124D02*
X23651873Y15916124D01*
X23651873Y15250886D02*
X22381873Y14404219D01*
X23651873Y14404219D02*
X22381873Y15250886D01*
X22381873Y13920410D02*
X23651873Y13920410D01*
X23651873Y13920410D02*
X23651873Y13618029D01*
X23651873Y13618029D02*
X23591397Y13436600D01*
X23591397Y13436600D02*
X23470445Y13315648D01*
X23470445Y13315648D02*
X23349492Y13255171D01*
X23349492Y13255171D02*
X23107588Y13194695D01*
X23107588Y13194695D02*
X22926159Y13194695D01*
X22926159Y13194695D02*
X22684254Y13255171D01*
X22684254Y13255171D02*
X22563302Y13315648D01*
X22563302Y13315648D02*
X22442350Y13436600D01*
X22442350Y13436600D02*
X22381873Y13618029D01*
X22381873Y13618029D02*
X22381873Y13920410D01*
X23651873Y12408505D02*
X23651873Y12287552D01*
X23651873Y12287552D02*
X23591397Y12166600D01*
X23591397Y12166600D02*
X23530921Y12106124D01*
X23530921Y12106124D02*
X23409969Y12045648D01*
X23409969Y12045648D02*
X23168064Y11985171D01*
X23168064Y11985171D02*
X22865683Y11985171D01*
X22865683Y11985171D02*
X22623778Y12045648D01*
X22623778Y12045648D02*
X22502826Y12106124D01*
X22502826Y12106124D02*
X22442350Y12166600D01*
X22442350Y12166600D02*
X22381873Y12287552D01*
X22381873Y12287552D02*
X22381873Y12408505D01*
X22381873Y12408505D02*
X22442350Y12529457D01*
X22442350Y12529457D02*
X22502826Y12589933D01*
X22502826Y12589933D02*
X22623778Y12650410D01*
X22623778Y12650410D02*
X22865683Y12710886D01*
X22865683Y12710886D02*
X23168064Y12710886D01*
X23168064Y12710886D02*
X23409969Y12650410D01*
X23409969Y12650410D02*
X23530921Y12589933D01*
X23530921Y12589933D02*
X23591397Y12529457D01*
X23591397Y12529457D02*
X23651873Y12408505D01*
X52982826Y15249676D02*
X52922350Y15310152D01*
X52922350Y15310152D02*
X52861873Y15491581D01*
X52861873Y15491581D02*
X52861873Y15612533D01*
X52861873Y15612533D02*
X52922350Y15793962D01*
X52922350Y15793962D02*
X53043302Y15914914D01*
X53043302Y15914914D02*
X53164254Y15975391D01*
X53164254Y15975391D02*
X53406159Y16035867D01*
X53406159Y16035867D02*
X53587588Y16035867D01*
X53587588Y16035867D02*
X53829492Y15975391D01*
X53829492Y15975391D02*
X53950445Y15914914D01*
X53950445Y15914914D02*
X54071397Y15793962D01*
X54071397Y15793962D02*
X54131873Y15612533D01*
X54131873Y15612533D02*
X54131873Y15491581D01*
X54131873Y15491581D02*
X54071397Y15310152D01*
X54071397Y15310152D02*
X54010921Y15249676D01*
X53224730Y14765867D02*
X53224730Y14161105D01*
X52861873Y14886819D02*
X54131873Y14463486D01*
X54131873Y14463486D02*
X52861873Y14040152D01*
X52861873Y13616820D02*
X54131873Y13616820D01*
X54131873Y13616820D02*
X52861873Y12891105D01*
X52861873Y12891105D02*
X54131873Y12891105D01*
X52861873Y11681582D02*
X52861873Y12286344D01*
X52861873Y12286344D02*
X54131873Y12286344D01*
X47902826Y15248466D02*
X47842350Y15308942D01*
X47842350Y15308942D02*
X47781873Y15490371D01*
X47781873Y15490371D02*
X47781873Y15611323D01*
X47781873Y15611323D02*
X47842350Y15792752D01*
X47842350Y15792752D02*
X47963302Y15913704D01*
X47963302Y15913704D02*
X48084254Y15974181D01*
X48084254Y15974181D02*
X48326159Y16034657D01*
X48326159Y16034657D02*
X48507588Y16034657D01*
X48507588Y16034657D02*
X48749492Y15974181D01*
X48749492Y15974181D02*
X48870445Y15913704D01*
X48870445Y15913704D02*
X48991397Y15792752D01*
X48991397Y15792752D02*
X49051873Y15611323D01*
X49051873Y15611323D02*
X49051873Y15490371D01*
X49051873Y15490371D02*
X48991397Y15308942D01*
X48991397Y15308942D02*
X48930921Y15248466D01*
X48144730Y14764657D02*
X48144730Y14159895D01*
X47781873Y14885609D02*
X49051873Y14462276D01*
X49051873Y14462276D02*
X47781873Y14038942D01*
X47781873Y13615610D02*
X49051873Y13615610D01*
X49051873Y13615610D02*
X47781873Y12889895D01*
X47781873Y12889895D02*
X49051873Y12889895D01*
X47781873Y12285134D02*
X49051873Y12285134D01*
X48447111Y12285134D02*
X48447111Y11559419D01*
X47781873Y11559419D02*
X49051873Y11559419D01*
X43860597Y14785219D02*
X43921073Y14906172D01*
X43921073Y14906172D02*
X43921073Y15087600D01*
X43921073Y15087600D02*
X43860597Y15269029D01*
X43860597Y15269029D02*
X43739645Y15389981D01*
X43739645Y15389981D02*
X43618692Y15450458D01*
X43618692Y15450458D02*
X43376788Y15510934D01*
X43376788Y15510934D02*
X43195359Y15510934D01*
X43195359Y15510934D02*
X42953454Y15450458D01*
X42953454Y15450458D02*
X42832502Y15389981D01*
X42832502Y15389981D02*
X42711550Y15269029D01*
X42711550Y15269029D02*
X42651073Y15087600D01*
X42651073Y15087600D02*
X42651073Y14966648D01*
X42651073Y14966648D02*
X42711550Y14785219D01*
X42711550Y14785219D02*
X42772026Y14724743D01*
X42772026Y14724743D02*
X43195359Y14724743D01*
X43195359Y14724743D02*
X43195359Y14966648D01*
X42651073Y14180458D02*
X43921073Y14180458D01*
X43921073Y14180458D02*
X42651073Y13454743D01*
X42651073Y13454743D02*
X43921073Y13454743D01*
X42651073Y12849982D02*
X43921073Y12849982D01*
X43921073Y12849982D02*
X43921073Y12547601D01*
X43921073Y12547601D02*
X43860597Y12366172D01*
X43860597Y12366172D02*
X43739645Y12245220D01*
X43739645Y12245220D02*
X43618692Y12184743D01*
X43618692Y12184743D02*
X43376788Y12124267D01*
X43376788Y12124267D02*
X43195359Y12124267D01*
X43195359Y12124267D02*
X42953454Y12184743D01*
X42953454Y12184743D02*
X42832502Y12245220D01*
X42832502Y12245220D02*
X42711550Y12366172D01*
X42711550Y12366172D02*
X42651073Y12547601D01*
X42651073Y12547601D02*
X42651073Y12849982D01*
X17362350Y16239067D02*
X17301873Y16057638D01*
X17301873Y16057638D02*
X17301873Y15755257D01*
X17301873Y15755257D02*
X17362350Y15634305D01*
X17362350Y15634305D02*
X17422826Y15573829D01*
X17422826Y15573829D02*
X17543778Y15513352D01*
X17543778Y15513352D02*
X17664730Y15513352D01*
X17664730Y15513352D02*
X17785683Y15573829D01*
X17785683Y15573829D02*
X17846159Y15634305D01*
X17846159Y15634305D02*
X17906635Y15755257D01*
X17906635Y15755257D02*
X17967111Y15997162D01*
X17967111Y15997162D02*
X18027588Y16118114D01*
X18027588Y16118114D02*
X18088064Y16178591D01*
X18088064Y16178591D02*
X18209016Y16239067D01*
X18209016Y16239067D02*
X18329969Y16239067D01*
X18329969Y16239067D02*
X18450921Y16178591D01*
X18450921Y16178591D02*
X18511397Y16118114D01*
X18511397Y16118114D02*
X18571873Y15997162D01*
X18571873Y15997162D02*
X18571873Y15694781D01*
X18571873Y15694781D02*
X18511397Y15513352D01*
X17422826Y14243352D02*
X17362350Y14303828D01*
X17362350Y14303828D02*
X17301873Y14485257D01*
X17301873Y14485257D02*
X17301873Y14606209D01*
X17301873Y14606209D02*
X17362350Y14787638D01*
X17362350Y14787638D02*
X17483302Y14908590D01*
X17483302Y14908590D02*
X17604254Y14969067D01*
X17604254Y14969067D02*
X17846159Y15029543D01*
X17846159Y15029543D02*
X18027588Y15029543D01*
X18027588Y15029543D02*
X18269492Y14969067D01*
X18269492Y14969067D02*
X18390445Y14908590D01*
X18390445Y14908590D02*
X18511397Y14787638D01*
X18511397Y14787638D02*
X18571873Y14606209D01*
X18571873Y14606209D02*
X18571873Y14485257D01*
X18571873Y14485257D02*
X18511397Y14303828D01*
X18511397Y14303828D02*
X18450921Y14243352D01*
X17301873Y13094305D02*
X17301873Y13699067D01*
X17301873Y13699067D02*
X18571873Y13699067D01*
X17301873Y12005733D02*
X17301873Y12731448D01*
X17301873Y12368591D02*
X18571873Y12368591D01*
X18571873Y12368591D02*
X18390445Y12489543D01*
X18390445Y12489543D02*
X18269492Y12610495D01*
X18269492Y12610495D02*
X18209016Y12731448D01*
X7362380Y6750274D02*
X7362380Y5722179D01*
X7362380Y5722179D02*
X7422857Y5601227D01*
X7422857Y5601227D02*
X7483333Y5540750D01*
X7483333Y5540750D02*
X7604285Y5480274D01*
X7604285Y5480274D02*
X7846190Y5480274D01*
X7846190Y5480274D02*
X7967142Y5540750D01*
X7967142Y5540750D02*
X8027619Y5601227D01*
X8027619Y5601227D02*
X8088095Y5722179D01*
X8088095Y5722179D02*
X8088095Y6750274D01*
X9358095Y5480274D02*
X8632380Y5480274D01*
X8995237Y5480274D02*
X8995237Y6750274D01*
X8995237Y6750274D02*
X8874285Y6568846D01*
X8874285Y6568846D02*
X8753333Y6447893D01*
X8753333Y6447893D02*
X8632380Y6387417D01*
X44791333Y19655620D02*
X44743714Y19608000D01*
X44743714Y19608000D02*
X44600857Y19560381D01*
X44600857Y19560381D02*
X44505619Y19560381D01*
X44505619Y19560381D02*
X44362762Y19608000D01*
X44362762Y19608000D02*
X44267524Y19703239D01*
X44267524Y19703239D02*
X44219905Y19798477D01*
X44219905Y19798477D02*
X44172286Y19988953D01*
X44172286Y19988953D02*
X44172286Y20131810D01*
X44172286Y20131810D02*
X44219905Y20322286D01*
X44219905Y20322286D02*
X44267524Y20417524D01*
X44267524Y20417524D02*
X44362762Y20512762D01*
X44362762Y20512762D02*
X44505619Y20560381D01*
X44505619Y20560381D02*
X44600857Y20560381D01*
X44600857Y20560381D02*
X44743714Y20512762D01*
X44743714Y20512762D02*
X44791333Y20465143D01*
X45696095Y20560381D02*
X45219905Y20560381D01*
X45219905Y20560381D02*
X45172286Y20084191D01*
X45172286Y20084191D02*
X45219905Y20131810D01*
X45219905Y20131810D02*
X45315143Y20179429D01*
X45315143Y20179429D02*
X45553238Y20179429D01*
X45553238Y20179429D02*
X45648476Y20131810D01*
X45648476Y20131810D02*
X45696095Y20084191D01*
X45696095Y20084191D02*
X45743714Y19988953D01*
X45743714Y19988953D02*
X45743714Y19750858D01*
X45743714Y19750858D02*
X45696095Y19655620D01*
X45696095Y19655620D02*
X45648476Y19608000D01*
X45648476Y19608000D02*
X45553238Y19560381D01*
X45553238Y19560381D02*
X45315143Y19560381D01*
X45315143Y19560381D02*
X45219905Y19608000D01*
X45219905Y19608000D02*
X45172286Y19655620D01*
X27417733Y33625620D02*
X27370114Y33578000D01*
X27370114Y33578000D02*
X27227257Y33530381D01*
X27227257Y33530381D02*
X27132019Y33530381D01*
X27132019Y33530381D02*
X26989162Y33578000D01*
X26989162Y33578000D02*
X26893924Y33673239D01*
X26893924Y33673239D02*
X26846305Y33768477D01*
X26846305Y33768477D02*
X26798686Y33958953D01*
X26798686Y33958953D02*
X26798686Y34101810D01*
X26798686Y34101810D02*
X26846305Y34292286D01*
X26846305Y34292286D02*
X26893924Y34387524D01*
X26893924Y34387524D02*
X26989162Y34482762D01*
X26989162Y34482762D02*
X27132019Y34530381D01*
X27132019Y34530381D02*
X27227257Y34530381D01*
X27227257Y34530381D02*
X27370114Y34482762D01*
X27370114Y34482762D02*
X27417733Y34435143D01*
X27751067Y34530381D02*
X28417733Y34530381D01*
X28417733Y34530381D02*
X27989162Y33530381D01*
X37437180Y32694274D02*
X37437180Y31666179D01*
X37437180Y31666179D02*
X37497657Y31545227D01*
X37497657Y31545227D02*
X37558133Y31484750D01*
X37558133Y31484750D02*
X37679085Y31424274D01*
X37679085Y31424274D02*
X37920990Y31424274D01*
X37920990Y31424274D02*
X38041942Y31484750D01*
X38041942Y31484750D02*
X38102419Y31545227D01*
X38102419Y31545227D02*
X38162895Y31666179D01*
X38162895Y31666179D02*
X38162895Y32694274D01*
X38707180Y32573322D02*
X38767656Y32633798D01*
X38767656Y32633798D02*
X38888609Y32694274D01*
X38888609Y32694274D02*
X39190990Y32694274D01*
X39190990Y32694274D02*
X39311942Y32633798D01*
X39311942Y32633798D02*
X39372418Y32573322D01*
X39372418Y32573322D02*
X39432895Y32452370D01*
X39432895Y32452370D02*
X39432895Y32331417D01*
X39432895Y32331417D02*
X39372418Y32149989D01*
X39372418Y32149989D02*
X38646704Y31424274D01*
X38646704Y31424274D02*
X39432895Y31424274D01*
X49634876Y45807981D02*
X50301542Y44807981D01*
X50301542Y45807981D02*
X49634876Y44807981D01*
X51206304Y44807981D02*
X50634876Y44807981D01*
X50920590Y44807981D02*
X50920590Y45807981D01*
X50920590Y45807981D02*
X50825352Y45665124D01*
X50825352Y45665124D02*
X50730114Y45569886D01*
X50730114Y45569886D02*
X50634876Y45522267D01*
X47940933Y19509581D02*
X47607600Y19985772D01*
X47369505Y19509581D02*
X47369505Y20509581D01*
X47369505Y20509581D02*
X47750457Y20509581D01*
X47750457Y20509581D02*
X47845695Y20461962D01*
X47845695Y20461962D02*
X47893314Y20414343D01*
X47893314Y20414343D02*
X47940933Y20319105D01*
X47940933Y20319105D02*
X47940933Y20176248D01*
X47940933Y20176248D02*
X47893314Y20081010D01*
X47893314Y20081010D02*
X47845695Y20033391D01*
X47845695Y20033391D02*
X47750457Y19985772D01*
X47750457Y19985772D02*
X47369505Y19985772D01*
X48845695Y20509581D02*
X48369505Y20509581D01*
X48369505Y20509581D02*
X48321886Y20033391D01*
X48321886Y20033391D02*
X48369505Y20081010D01*
X48369505Y20081010D02*
X48464743Y20128629D01*
X48464743Y20128629D02*
X48702838Y20128629D01*
X48702838Y20128629D02*
X48798076Y20081010D01*
X48798076Y20081010D02*
X48845695Y20033391D01*
X48845695Y20033391D02*
X48893314Y19938153D01*
X48893314Y19938153D02*
X48893314Y19700058D01*
X48893314Y19700058D02*
X48845695Y19604820D01*
X48845695Y19604820D02*
X48798076Y19557200D01*
X48798076Y19557200D02*
X48702838Y19509581D01*
X48702838Y19509581D02*
X48464743Y19509581D01*
X48464743Y19509581D02*
X48369505Y19557200D01*
X48369505Y19557200D02*
X48321886Y19604820D01*
X49848419Y28803696D02*
X50657942Y28803696D01*
X50657942Y28803696D02*
X50753180Y28851315D01*
X50753180Y28851315D02*
X50800800Y28898934D01*
X50800800Y28898934D02*
X50848419Y28994172D01*
X50848419Y28994172D02*
X50848419Y29184648D01*
X50848419Y29184648D02*
X50800800Y29279886D01*
X50800800Y29279886D02*
X50753180Y29327505D01*
X50753180Y29327505D02*
X50657942Y29375124D01*
X50657942Y29375124D02*
X49848419Y29375124D01*
X50181752Y30279886D02*
X50848419Y30279886D01*
X49800800Y30041791D02*
X50515085Y29803696D01*
X50515085Y29803696D02*
X50515085Y30422743D01*
X56305533Y19554020D02*
X56257914Y19506400D01*
X56257914Y19506400D02*
X56115057Y19458781D01*
X56115057Y19458781D02*
X56019819Y19458781D01*
X56019819Y19458781D02*
X55876962Y19506400D01*
X55876962Y19506400D02*
X55781724Y19601639D01*
X55781724Y19601639D02*
X55734105Y19696877D01*
X55734105Y19696877D02*
X55686486Y19887353D01*
X55686486Y19887353D02*
X55686486Y20030210D01*
X55686486Y20030210D02*
X55734105Y20220686D01*
X55734105Y20220686D02*
X55781724Y20315924D01*
X55781724Y20315924D02*
X55876962Y20411162D01*
X55876962Y20411162D02*
X56019819Y20458781D01*
X56019819Y20458781D02*
X56115057Y20458781D01*
X56115057Y20458781D02*
X56257914Y20411162D01*
X56257914Y20411162D02*
X56305533Y20363543D01*
X57162676Y20125448D02*
X57162676Y19458781D01*
X56924581Y20506400D02*
X56686486Y19792115D01*
X56686486Y19792115D02*
X57305533Y19792115D01*
X44638933Y26920020D02*
X44591314Y26872400D01*
X44591314Y26872400D02*
X44448457Y26824781D01*
X44448457Y26824781D02*
X44353219Y26824781D01*
X44353219Y26824781D02*
X44210362Y26872400D01*
X44210362Y26872400D02*
X44115124Y26967639D01*
X44115124Y26967639D02*
X44067505Y27062877D01*
X44067505Y27062877D02*
X44019886Y27253353D01*
X44019886Y27253353D02*
X44019886Y27396210D01*
X44019886Y27396210D02*
X44067505Y27586686D01*
X44067505Y27586686D02*
X44115124Y27681924D01*
X44115124Y27681924D02*
X44210362Y27777162D01*
X44210362Y27777162D02*
X44353219Y27824781D01*
X44353219Y27824781D02*
X44448457Y27824781D01*
X44448457Y27824781D02*
X44591314Y27777162D01*
X44591314Y27777162D02*
X44638933Y27729543D01*
X44972267Y27824781D02*
X45591314Y27824781D01*
X45591314Y27824781D02*
X45257981Y27443829D01*
X45257981Y27443829D02*
X45400838Y27443829D01*
X45400838Y27443829D02*
X45496076Y27396210D01*
X45496076Y27396210D02*
X45543695Y27348591D01*
X45543695Y27348591D02*
X45591314Y27253353D01*
X45591314Y27253353D02*
X45591314Y27015258D01*
X45591314Y27015258D02*
X45543695Y26920020D01*
X45543695Y26920020D02*
X45496076Y26872400D01*
X45496076Y26872400D02*
X45400838Y26824781D01*
X45400838Y26824781D02*
X45115124Y26824781D01*
X45115124Y26824781D02*
X45019886Y26872400D01*
X45019886Y26872400D02*
X44972267Y26920020D01*
X53274933Y19458781D02*
X52941600Y19934972D01*
X52703505Y19458781D02*
X52703505Y20458781D01*
X52703505Y20458781D02*
X53084457Y20458781D01*
X53084457Y20458781D02*
X53179695Y20411162D01*
X53179695Y20411162D02*
X53227314Y20363543D01*
X53227314Y20363543D02*
X53274933Y20268305D01*
X53274933Y20268305D02*
X53274933Y20125448D01*
X53274933Y20125448D02*
X53227314Y20030210D01*
X53227314Y20030210D02*
X53179695Y19982591D01*
X53179695Y19982591D02*
X53084457Y19934972D01*
X53084457Y19934972D02*
X52703505Y19934972D01*
X53655886Y20363543D02*
X53703505Y20411162D01*
X53703505Y20411162D02*
X53798743Y20458781D01*
X53798743Y20458781D02*
X54036838Y20458781D01*
X54036838Y20458781D02*
X54132076Y20411162D01*
X54132076Y20411162D02*
X54179695Y20363543D01*
X54179695Y20363543D02*
X54227314Y20268305D01*
X54227314Y20268305D02*
X54227314Y20173067D01*
X54227314Y20173067D02*
X54179695Y20030210D01*
X54179695Y20030210D02*
X53608267Y19458781D01*
X53608267Y19458781D02*
X54227314Y19458781D01*
X53376533Y42625520D02*
X53328914Y42577900D01*
X53328914Y42577900D02*
X53186057Y42530281D01*
X53186057Y42530281D02*
X53090819Y42530281D01*
X53090819Y42530281D02*
X52947962Y42577900D01*
X52947962Y42577900D02*
X52852724Y42673139D01*
X52852724Y42673139D02*
X52805105Y42768377D01*
X52805105Y42768377D02*
X52757486Y42958853D01*
X52757486Y42958853D02*
X52757486Y43101710D01*
X52757486Y43101710D02*
X52805105Y43292186D01*
X52805105Y43292186D02*
X52852724Y43387424D01*
X52852724Y43387424D02*
X52947962Y43482662D01*
X52947962Y43482662D02*
X53090819Y43530281D01*
X53090819Y43530281D02*
X53186057Y43530281D01*
X53186057Y43530281D02*
X53328914Y43482662D01*
X53328914Y43482662D02*
X53376533Y43435043D01*
X54328914Y42530281D02*
X53757486Y42530281D01*
X54043200Y42530281D02*
X54043200Y43530281D01*
X54043200Y43530281D02*
X53947962Y43387424D01*
X53947962Y43387424D02*
X53852724Y43292186D01*
X53852724Y43292186D02*
X53757486Y43244567D01*
X31124703Y36213705D02*
X30858036Y36594658D01*
X30667560Y36213705D02*
X30667560Y37013705D01*
X30667560Y37013705D02*
X30972322Y37013705D01*
X30972322Y37013705D02*
X31048512Y36975610D01*
X31048512Y36975610D02*
X31086607Y36937515D01*
X31086607Y36937515D02*
X31124703Y36861324D01*
X31124703Y36861324D02*
X31124703Y36747039D01*
X31124703Y36747039D02*
X31086607Y36670848D01*
X31086607Y36670848D02*
X31048512Y36632753D01*
X31048512Y36632753D02*
X30972322Y36594658D01*
X30972322Y36594658D02*
X30667560Y36594658D01*
X31391369Y37013705D02*
X31886607Y37013705D01*
X31886607Y37013705D02*
X31619941Y36708943D01*
X31619941Y36708943D02*
X31734226Y36708943D01*
X31734226Y36708943D02*
X31810417Y36670848D01*
X31810417Y36670848D02*
X31848512Y36632753D01*
X31848512Y36632753D02*
X31886607Y36556562D01*
X31886607Y36556562D02*
X31886607Y36366086D01*
X31886607Y36366086D02*
X31848512Y36289896D01*
X31848512Y36289896D02*
X31810417Y36251800D01*
X31810417Y36251800D02*
X31734226Y36213705D01*
X31734226Y36213705D02*
X31505655Y36213705D01*
X31505655Y36213705D02*
X31429464Y36251800D01*
X31429464Y36251800D02*
X31391369Y36289896D01*
X57465933Y29245181D02*
X57132600Y29721372D01*
X56894505Y29245181D02*
X56894505Y30245181D01*
X56894505Y30245181D02*
X57275457Y30245181D01*
X57275457Y30245181D02*
X57370695Y30197562D01*
X57370695Y30197562D02*
X57418314Y30149943D01*
X57418314Y30149943D02*
X57465933Y30054705D01*
X57465933Y30054705D02*
X57465933Y29911848D01*
X57465933Y29911848D02*
X57418314Y29816610D01*
X57418314Y29816610D02*
X57370695Y29768991D01*
X57370695Y29768991D02*
X57275457Y29721372D01*
X57275457Y29721372D02*
X56894505Y29721372D01*
X58323076Y29911848D02*
X58323076Y29245181D01*
X58084981Y30292800D02*
X57846886Y29578515D01*
X57846886Y29578515D02*
X58465933Y29578515D01*
X54695903Y33351505D02*
X54429236Y33732458D01*
X54238760Y33351505D02*
X54238760Y34151505D01*
X54238760Y34151505D02*
X54543522Y34151505D01*
X54543522Y34151505D02*
X54619712Y34113410D01*
X54619712Y34113410D02*
X54657807Y34075315D01*
X54657807Y34075315D02*
X54695903Y33999124D01*
X54695903Y33999124D02*
X54695903Y33884839D01*
X54695903Y33884839D02*
X54657807Y33808648D01*
X54657807Y33808648D02*
X54619712Y33770553D01*
X54619712Y33770553D02*
X54543522Y33732458D01*
X54543522Y33732458D02*
X54238760Y33732458D01*
X55457807Y33351505D02*
X55000664Y33351505D01*
X55229236Y33351505D02*
X55229236Y34151505D01*
X55229236Y34151505D02*
X55153045Y34037220D01*
X55153045Y34037220D02*
X55076855Y33961029D01*
X55076855Y33961029D02*
X55000664Y33922934D01*
X48982333Y38756420D02*
X48934714Y38708800D01*
X48934714Y38708800D02*
X48791857Y38661181D01*
X48791857Y38661181D02*
X48696619Y38661181D01*
X48696619Y38661181D02*
X48553762Y38708800D01*
X48553762Y38708800D02*
X48458524Y38804039D01*
X48458524Y38804039D02*
X48410905Y38899277D01*
X48410905Y38899277D02*
X48363286Y39089753D01*
X48363286Y39089753D02*
X48363286Y39232610D01*
X48363286Y39232610D02*
X48410905Y39423086D01*
X48410905Y39423086D02*
X48458524Y39518324D01*
X48458524Y39518324D02*
X48553762Y39613562D01*
X48553762Y39613562D02*
X48696619Y39661181D01*
X48696619Y39661181D02*
X48791857Y39661181D01*
X48791857Y39661181D02*
X48934714Y39613562D01*
X48934714Y39613562D02*
X48982333Y39565943D01*
X49363286Y39565943D02*
X49410905Y39613562D01*
X49410905Y39613562D02*
X49506143Y39661181D01*
X49506143Y39661181D02*
X49744238Y39661181D01*
X49744238Y39661181D02*
X49839476Y39613562D01*
X49839476Y39613562D02*
X49887095Y39565943D01*
X49887095Y39565943D02*
X49934714Y39470705D01*
X49934714Y39470705D02*
X49934714Y39375467D01*
X49934714Y39375467D02*
X49887095Y39232610D01*
X49887095Y39232610D02*
X49315667Y38661181D01*
X49315667Y38661181D02*
X49934714Y38661181D01*
D11*
%TO.C,U1*%
X10231100Y10693400D02*
X10231100Y495300D01*
X10231100Y495300D02*
X50932100Y495300D01*
X11912700Y3581400D02*
X11912700Y494400D01*
X11912700Y3581400D02*
X12293700Y3962400D01*
X12164200Y9026300D02*
X12164200Y10694400D01*
X12164200Y9026300D02*
X13436700Y9026300D01*
X12293700Y3962400D02*
X13309700Y3962400D01*
X13309700Y3962400D02*
X13704000Y3568100D01*
X13436700Y9026300D02*
X13436700Y10694400D01*
X13704000Y3568100D02*
X13704000Y494400D01*
X16992600Y3581400D02*
X16992600Y494400D01*
X16992600Y3581400D02*
X17373600Y3962400D01*
X17244100Y9026300D02*
X17244100Y10694400D01*
X17244100Y9026300D02*
X18516600Y9026300D01*
X17373600Y3962400D02*
X18389600Y3962400D01*
X18389600Y3962400D02*
X18783900Y3568100D01*
X18516600Y9026300D02*
X18516600Y10694400D01*
X18783900Y3568100D02*
X18783900Y494400D01*
X22072700Y3581400D02*
X22072700Y494400D01*
X22072700Y3581400D02*
X22453700Y3962400D01*
X22324200Y9026300D02*
X22324200Y10694400D01*
X22324200Y9026300D02*
X23596700Y9026300D01*
X22453700Y3962400D02*
X23469700Y3962400D01*
X23469700Y3962400D02*
X23864000Y3568100D01*
X23596700Y9026300D02*
X23596700Y10694400D01*
X23864000Y3568100D02*
X23864000Y494400D01*
X27152800Y3581200D02*
X27152800Y494200D01*
X27152800Y3581200D02*
X27533800Y3962200D01*
X27404300Y9026100D02*
X27404300Y10694200D01*
X27404300Y9026100D02*
X28676700Y9026100D01*
X27533800Y3962200D02*
X28549800Y3962200D01*
X28549800Y3962200D02*
X28944100Y3567800D01*
X28676700Y9026100D02*
X28676700Y10694200D01*
X28944100Y3567800D02*
X28944100Y494200D01*
X32232800Y3581400D02*
X32232800Y494400D01*
X32232800Y3581400D02*
X32613800Y3962400D01*
X32484200Y9026300D02*
X32484200Y10694400D01*
X32484200Y9026300D02*
X33756700Y9026300D01*
X32613800Y3962400D02*
X33629800Y3962400D01*
X33629800Y3962400D02*
X34024000Y3568100D01*
X33756700Y9026300D02*
X33756700Y10694400D01*
X34024000Y3568100D02*
X34024000Y494400D01*
X37312700Y3581300D02*
X37312700Y494400D01*
X37312700Y3581300D02*
X37693700Y3962300D01*
X37564200Y9026300D02*
X37564200Y10694300D01*
X37564200Y9026300D02*
X38836700Y9026300D01*
X37693700Y3962300D02*
X38709700Y3962300D01*
X38709700Y3962300D02*
X39104000Y3568000D01*
X38836700Y9026300D02*
X38836700Y10694300D01*
X39104000Y3568000D02*
X39104000Y494400D01*
X42392700Y3581400D02*
X42392700Y494400D01*
X42392700Y3581400D02*
X42773700Y3962400D01*
X42644200Y9026300D02*
X42644200Y10694400D01*
X42644200Y9026300D02*
X43916700Y9026300D01*
X42773700Y3962400D02*
X43789700Y3962400D01*
X43789700Y3962400D02*
X44184000Y3568100D01*
X43916700Y9026300D02*
X43916700Y10694400D01*
X44184000Y3568100D02*
X44184000Y494400D01*
X47473100Y3581300D02*
X47473100Y494300D01*
X47473100Y3581300D02*
X47854100Y3962300D01*
X47724200Y9026300D02*
X47724200Y10694300D01*
X47724200Y9026300D02*
X48996700Y9026300D01*
X47854100Y3962300D02*
X48869900Y3962300D01*
X48869900Y3962300D02*
X49264200Y3568000D01*
X48996700Y9026300D02*
X48996700Y10694300D01*
X49264200Y3568000D02*
X49264200Y494300D01*
X50932100Y495300D02*
X56011500Y495300D01*
X50932600Y10693400D02*
X10231100Y10693400D01*
X50932600Y10693400D02*
X56011500Y10693400D01*
X52552700Y3581400D02*
X52552700Y494400D01*
X52552700Y3581400D02*
X52933700Y3962400D01*
X52804200Y9026300D02*
X52804200Y10694400D01*
X52804200Y9026300D02*
X54076700Y9026300D01*
X52933700Y3962400D02*
X53949700Y3962400D01*
X53949700Y3962400D02*
X54344000Y3568100D01*
X54076700Y9026300D02*
X54076700Y10694400D01*
X54344000Y3568100D02*
X54344000Y494400D01*
X56011500Y494400D02*
X56011500Y10694400D01*
%TO.C,U2*%
X34925000Y45085000D02*
X41783000Y45085000D01*
X34925000Y33401000D02*
X34925000Y45085000D01*
X34925000Y33401000D02*
X37381200Y33401000D01*
X41783000Y45085000D02*
X41783000Y33401000D01*
X41783000Y33401000D02*
X39364700Y33401000D01*
X37381200Y33401000D02*
G75*
G02*
X39337000Y33401000I977900J0D01*
G01*
D10*
%TO.C,X1*%
X51022000Y44372000D02*
X49422000Y44372000D01*
X51022000Y43022000D02*
X51022000Y44372000D01*
%TO.C,U4*%
X48873600Y32349600D02*
X51913600Y32349600D01*
X48873600Y27289600D02*
X48873600Y32349600D01*
X51913600Y32349600D02*
X51913600Y27289600D01*
X51913600Y27289600D02*
X48873600Y27289600D01*
X48673600Y32319600D02*
G75*
G02*
X48613600Y32319600I-30000J0D01*
G01*
X48613600Y32319600D02*
G75*
G02*
X48673600Y32319600I30000J0D01*
G01*
D12*
%TO.C,G\u002A\u002A\u002A*%
G36*
X33600480Y28514965D02*
G01*
X33734520Y28474313D01*
X33859558Y28405921D01*
X33977127Y28309134D01*
X33983942Y28302443D01*
X34071686Y28199472D01*
X34135099Y28090245D01*
X34173532Y27977977D01*
X34186334Y27865883D01*
X34172858Y27757180D01*
X34132453Y27655082D01*
X34119210Y27632758D01*
X34065197Y27568848D01*
X33992755Y27512057D01*
X33913111Y27470569D01*
X33882806Y27460384D01*
X33826473Y27451142D01*
X33752311Y27447534D01*
X33671583Y27449338D01*
X33595551Y27456335D01*
X33539748Y27467081D01*
X33422375Y27511668D01*
X33313725Y27576257D01*
X33216619Y27657061D01*
X33133877Y27750290D01*
X33068320Y27852155D01*
X33022769Y27958867D01*
X33000045Y28066638D01*
X33000908Y28097651D01*
X33145676Y28097651D01*
X33161047Y28010945D01*
X33198443Y27920494D01*
X33255774Y27831382D01*
X33329483Y27750062D01*
X33394093Y27700400D01*
X33475391Y27653411D01*
X33560648Y27615659D01*
X33630075Y27595040D01*
X33693187Y27588399D01*
X33765592Y27589677D01*
X33833513Y27598078D01*
X33874876Y27609201D01*
X33903626Y27627046D01*
X33938923Y27657439D01*
X33949058Y27667684D01*
X33981562Y27716461D01*
X33992550Y27773961D01*
X33981957Y27843866D01*
X33949721Y27929862D01*
X33944322Y27941593D01*
X33887501Y28038444D01*
X33812983Y28128734D01*
X33725918Y28208613D01*
X33631454Y28274236D01*
X33534738Y28321756D01*
X33440919Y28347323D01*
X33396925Y28350673D01*
X33309703Y28342234D01*
X33243709Y28315097D01*
X33195158Y28266527D01*
X33160267Y28193794D01*
X33154422Y28175529D01*
X33145676Y28097651D01*
X33000908Y28097651D01*
X33002968Y28171678D01*
X33005364Y28184863D01*
X33040596Y28293496D01*
X33097919Y28383046D01*
X33175730Y28452288D01*
X33272422Y28499998D01*
X33386393Y28524953D01*
X33455905Y28528534D01*
X33600480Y28514965D01*
G37*
G36*
X37523479Y27922768D02*
G01*
X37657307Y27878145D01*
X37782757Y27806328D01*
X37897407Y27708449D01*
X37914307Y27690748D01*
X37994689Y27587969D01*
X38051254Y27480621D01*
X38084215Y27371973D01*
X38093780Y27265295D01*
X38080163Y27163858D01*
X38043574Y27070932D01*
X37984224Y26989788D01*
X37902324Y26923695D01*
X37863395Y26902254D01*
X37781212Y26873861D01*
X37682844Y26858147D01*
X37579315Y26855950D01*
X37481647Y26868108D01*
X37465296Y26871949D01*
X37346566Y26915462D01*
X37231115Y26982168D01*
X37125358Y27066845D01*
X37035714Y27164274D01*
X36968599Y27269234D01*
X36963109Y27280502D01*
X36935863Y27345441D01*
X36920239Y27405327D01*
X36912609Y27475407D01*
X36911469Y27497577D01*
X36911403Y27500041D01*
X37059977Y27500041D01*
X37081158Y27393367D01*
X37127777Y27293362D01*
X37195820Y27203056D01*
X37281277Y27125482D01*
X37380134Y27063672D01*
X37488380Y27020656D01*
X37602003Y26999465D01*
X37716990Y27003133D01*
X37717516Y27003212D01*
X37774167Y27017285D01*
X37817157Y27044190D01*
X37839917Y27066604D01*
X37868042Y27100657D01*
X37882495Y27132345D01*
X37887661Y27174272D01*
X37888135Y27205136D01*
X37878204Y27290102D01*
X37846998Y27372874D01*
X37792398Y27457484D01*
X37712285Y27547966D01*
X37703284Y27557000D01*
X37600383Y27647357D01*
X37498659Y27713388D01*
X37400226Y27754323D01*
X37307199Y27769396D01*
X37221692Y27757838D01*
X37187416Y27744321D01*
X37121097Y27698583D01*
X37078894Y27636641D01*
X37060166Y27557265D01*
X37059977Y27500041D01*
X36911403Y27500041D01*
X36909805Y27559905D01*
X36913002Y27604514D01*
X36923521Y27643259D01*
X36943821Y27687998D01*
X36955831Y27711381D01*
X37016565Y27801937D01*
X37092955Y27868948D01*
X37186609Y27913269D01*
X37299133Y27935756D01*
X37383696Y27939063D01*
X37523479Y27922768D01*
G37*
G36*
X30395596Y22886017D02*
G01*
X30515811Y22874186D01*
X30622020Y22852871D01*
X30726157Y22818884D01*
X30840158Y22769039D01*
X30848240Y22765152D01*
X31018769Y22668136D01*
X31174634Y22550409D01*
X31314272Y22414884D01*
X31436123Y22264476D01*
X31538623Y22102100D01*
X31620210Y21930670D01*
X31679324Y21753102D01*
X31714402Y21572309D01*
X31723881Y21391207D01*
X31706201Y21212710D01*
X31699197Y21177250D01*
X31656116Y21042638D01*
X31588514Y20916758D01*
X31500174Y20803822D01*
X31394881Y20708042D01*
X31276416Y20633628D01*
X31173282Y20591869D01*
X31082188Y20571088D01*
X30975477Y20558089D01*
X30866408Y20553811D01*
X30768236Y20559191D01*
X30748885Y20561847D01*
X30607812Y20595008D01*
X30460108Y20649551D01*
X30314604Y20721535D01*
X30180130Y20807014D01*
X30150497Y20829086D01*
X30084222Y20885144D01*
X30009472Y20956473D01*
X29933557Y21035369D01*
X29863786Y21114125D01*
X29807469Y21185038D01*
X29792056Y21206923D01*
X29691328Y21377037D01*
X29612940Y21553276D01*
X29558172Y21731422D01*
X29528299Y21907252D01*
X29524601Y22076548D01*
X29525342Y22087854D01*
X29531109Y22126750D01*
X29660390Y22126750D01*
X29662220Y22001586D01*
X29674644Y21902958D01*
X29717137Y21707631D01*
X29778980Y21531556D01*
X29862758Y21369501D01*
X29971055Y21216235D01*
X30068807Y21105079D01*
X30213166Y20969298D01*
X30361715Y20861592D01*
X30517033Y20780408D01*
X30681700Y20724194D01*
X30714712Y20716103D01*
X30807979Y20702402D01*
X30913277Y20699449D01*
X31019735Y20706654D01*
X31116482Y20723425D01*
X31174077Y20741111D01*
X31272319Y20791960D01*
X31345593Y20857107D01*
X31393068Y20935292D01*
X31413916Y21025256D01*
X31411354Y21101375D01*
X31394468Y21178504D01*
X31363714Y21273628D01*
X31322026Y21380286D01*
X31272339Y21492016D01*
X31217589Y21602358D01*
X31160711Y21704851D01*
X31104641Y21793032D01*
X31084364Y21821169D01*
X30970379Y21951878D01*
X30832779Y22074914D01*
X30677334Y22186744D01*
X30509811Y22283835D01*
X30335978Y22362656D01*
X30161603Y22419675D01*
X30075419Y22439016D01*
X29966254Y22453977D01*
X29879288Y22452751D01*
X29811262Y22434397D01*
X29758914Y22397972D01*
X29718985Y22342533D01*
X29714985Y22334782D01*
X29677840Y22236330D01*
X29660390Y22126750D01*
X29531109Y22126750D01*
X29549954Y22253841D01*
X29597877Y22404064D01*
X29667397Y22536951D01*
X29756796Y22650927D01*
X29864359Y22744420D01*
X29988371Y22815855D01*
X30127116Y22863658D01*
X30278878Y22886257D01*
X30395596Y22886017D01*
G37*
G36*
X30938871Y30241311D02*
G01*
X31138886Y30193639D01*
X31258257Y30153371D01*
X31335687Y30117386D01*
X31409255Y30067475D01*
X31483077Y30000014D01*
X31561268Y29911380D01*
X31622095Y29833074D01*
X31708754Y29716955D01*
X34416406Y29716096D01*
X34749812Y29715980D01*
X35054875Y29715844D01*
X35332927Y29715676D01*
X35585299Y29715462D01*
X35813320Y29715187D01*
X36018322Y29714840D01*
X36201636Y29714407D01*
X36364592Y29713874D01*
X36508521Y29713228D01*
X36634753Y29712456D01*
X36744620Y29711544D01*
X36839452Y29710479D01*
X36920580Y29709248D01*
X36989335Y29707837D01*
X37047047Y29706234D01*
X37095047Y29704424D01*
X37134666Y29702394D01*
X37167234Y29700132D01*
X37194083Y29697623D01*
X37216543Y29694855D01*
X37235944Y29691813D01*
X37253618Y29688486D01*
X37257849Y29687622D01*
X37450352Y29633216D01*
X37629974Y29553081D01*
X37794830Y29449052D01*
X37943032Y29322961D01*
X38072694Y29176643D01*
X38181927Y29011930D01*
X38268846Y28830656D01*
X38328318Y28647572D01*
X38340406Y28597077D01*
X38349811Y28548325D01*
X38357027Y28495981D01*
X38362546Y28434712D01*
X38366859Y28359184D01*
X38370461Y28264063D01*
X38373466Y28158651D01*
X38382518Y27810847D01*
X38439971Y27735812D01*
X38521194Y27607764D01*
X38587059Y27456640D01*
X38616414Y27364049D01*
X38630983Y27305432D01*
X38640961Y27246931D01*
X38647203Y27180421D01*
X38650566Y27097777D01*
X38651628Y27030229D01*
X38653831Y26942593D01*
X38658402Y26855540D01*
X38664713Y26778211D01*
X38672133Y26719747D01*
X38673553Y26711853D01*
X38684447Y26622504D01*
X38688035Y26511286D01*
X38684656Y26385001D01*
X38674649Y26250452D01*
X38658353Y26114442D01*
X38637670Y25991678D01*
X38611141Y25862340D01*
X38583381Y25740951D01*
X38552276Y25619419D01*
X38515710Y25489656D01*
X38471566Y25343569D01*
X38450786Y25277078D01*
X38377596Y25044663D01*
X38381376Y23541783D01*
X38385156Y22038902D01*
X38506970Y21964151D01*
X38558777Y21931201D01*
X38598945Y21903437D01*
X38622127Y21884678D01*
X38625661Y21879339D01*
X38615634Y21864782D01*
X38590252Y21831732D01*
X38552995Y21784624D01*
X38507346Y21727893D01*
X38490966Y21707734D01*
X38438314Y21642485D01*
X38400859Y21593237D01*
X38374825Y21553173D01*
X38356437Y21515480D01*
X38341918Y21473340D01*
X38327492Y21419941D01*
X38324093Y21406548D01*
X38260625Y21214046D01*
X38172025Y21035879D01*
X38060008Y20873741D01*
X37926288Y20729328D01*
X37772580Y20604337D01*
X37600599Y20500461D01*
X37412059Y20419399D01*
X37287259Y20381251D01*
X37153731Y20346409D01*
X34485998Y20342349D01*
X31818266Y20338288D01*
X31743550Y20279229D01*
X31626491Y20198468D01*
X31492682Y20125986D01*
X31383703Y20079324D01*
X31343149Y20064213D01*
X31305764Y20051094D01*
X31269211Y20039826D01*
X31231157Y20030268D01*
X31189268Y20022280D01*
X31141208Y20015721D01*
X31084643Y20010449D01*
X31017239Y20006325D01*
X30936660Y20003207D01*
X30840573Y20000955D01*
X30726642Y19999427D01*
X30592533Y19998484D01*
X30435911Y19997985D01*
X30254442Y19997788D01*
X30045792Y19997753D01*
X30030781Y19997752D01*
X28985297Y19997752D01*
X28876808Y20164663D01*
X28803184Y20280000D01*
X28723809Y20407973D01*
X28641849Y20543197D01*
X28560469Y20680287D01*
X28482835Y20813858D01*
X28412111Y20938524D01*
X28351464Y21048900D01*
X28305858Y21136027D01*
X28274762Y21209856D01*
X28265128Y21251432D01*
X28687510Y21251432D01*
X28764437Y21088231D01*
X28814491Y20980948D01*
X28867366Y20865694D01*
X28920863Y20747425D01*
X28972789Y20631095D01*
X29020945Y20521659D01*
X29063136Y20424074D01*
X29097166Y20343294D01*
X29120839Y20284274D01*
X29121342Y20282955D01*
X29134200Y20249173D01*
X30139585Y20253282D01*
X31144969Y20257390D01*
X31254312Y20297908D01*
X31433563Y20379047D01*
X31593440Y20482517D01*
X31734138Y20608513D01*
X31786763Y20672811D01*
X33078281Y20672811D01*
X33684289Y20648076D01*
X33853931Y20641439D01*
X34006315Y20636246D01*
X34145670Y20632574D01*
X34276223Y20630503D01*
X34402205Y20630108D01*
X34527843Y20631469D01*
X34657366Y20634663D01*
X34795003Y20639767D01*
X34944982Y20646860D01*
X35111533Y20656019D01*
X35298884Y20667322D01*
X35511263Y20680846D01*
X35528798Y20681983D01*
X35672232Y20691579D01*
X35807990Y20701207D01*
X35932914Y20710605D01*
X36043848Y20719510D01*
X36137632Y20727659D01*
X36211110Y20734791D01*
X36261122Y20740642D01*
X36284010Y20744770D01*
X36322929Y20763638D01*
X36349690Y20786763D01*
X36351115Y20788929D01*
X36356003Y20805791D01*
X36350677Y20825415D01*
X36333628Y20848745D01*
X36303350Y20876731D01*
X36258337Y20910319D01*
X36197079Y20950457D01*
X36118072Y20998090D01*
X36019807Y21054168D01*
X35900778Y21119636D01*
X35759477Y21195443D01*
X35594397Y21282535D01*
X35425285Y21370811D01*
X35322236Y21424060D01*
X35220715Y21475894D01*
X35125798Y21523767D01*
X35042561Y21565135D01*
X34976077Y21597453D01*
X34935708Y21616276D01*
X34809624Y21672705D01*
X34713161Y21618945D01*
X34675642Y21597678D01*
X34616714Y21563830D01*
X34540564Y21519825D01*
X34451381Y21468090D01*
X34353351Y21411051D01*
X34250663Y21351135D01*
X34223532Y21335276D01*
X34099551Y21262919D01*
X33960363Y21181929D01*
X33814618Y21097322D01*
X33670967Y21014115D01*
X33538060Y20937328D01*
X33454324Y20889090D01*
X33078281Y20672811D01*
X31786763Y20672811D01*
X31855853Y20757226D01*
X31887014Y20809185D01*
X32359252Y20809185D01*
X32374269Y20801410D01*
X32410986Y20798990D01*
X32423828Y20798921D01*
X32440422Y20799931D01*
X32460169Y20803599D01*
X32485125Y20810885D01*
X32517344Y20822746D01*
X32558884Y20840141D01*
X32611799Y20864029D01*
X32678145Y20895368D01*
X32759978Y20935116D01*
X32859354Y20984232D01*
X32978328Y21043674D01*
X33118956Y21114401D01*
X33283294Y21197371D01*
X33340979Y21226539D01*
X33558009Y21336603D01*
X33750424Y21434853D01*
X33920312Y21522414D01*
X34069762Y21600412D01*
X34200860Y21669974D01*
X34315695Y21732225D01*
X34416355Y21788292D01*
X34504928Y21839299D01*
X34583502Y21886375D01*
X34654164Y21930643D01*
X34690881Y21954511D01*
X34794736Y22022928D01*
X34601862Y22027437D01*
X34519530Y22027971D01*
X34417711Y22026511D01*
X34306504Y22023319D01*
X34196011Y22018659D01*
X34134514Y22015283D01*
X34042059Y22010171D01*
X33927689Y22004636D01*
X33799150Y21999004D01*
X33664189Y21993605D01*
X33530554Y21988766D01*
X33437201Y21985743D01*
X33328475Y21982404D01*
X33229888Y21979322D01*
X33145196Y21976618D01*
X33078152Y21974416D01*
X33032510Y21972836D01*
X33012026Y21972000D01*
X33011280Y21971933D01*
X32999228Y21962891D01*
X32967960Y21938534D01*
X32921489Y21902011D01*
X32863828Y21856472D01*
X32825797Y21826345D01*
X32758111Y21772828D01*
X32694113Y21722520D01*
X32639464Y21679851D01*
X32599824Y21649248D01*
X32588407Y21640606D01*
X32546233Y21600021D01*
X32525782Y21553805D01*
X32523858Y21544170D01*
X32518102Y21515645D01*
X32506824Y21463628D01*
X32491250Y21393476D01*
X32472604Y21310549D01*
X32452108Y21220206D01*
X32430988Y21127805D01*
X32410466Y21038705D01*
X32391768Y20958265D01*
X32376117Y20891844D01*
X32364736Y20844801D01*
X32359577Y20824884D01*
X32359252Y20809185D01*
X31887014Y20809185D01*
X31958782Y20928851D01*
X32012924Y21046070D01*
X32042432Y21125137D01*
X32073230Y21221456D01*
X32102700Y21325429D01*
X32128230Y21427458D01*
X32147204Y21517945D01*
X32154960Y21567444D01*
X32166038Y21620763D01*
X32187546Y21675129D01*
X32222030Y21734569D01*
X32272035Y21803111D01*
X32340103Y21884783D01*
X32393130Y21944485D01*
X32600854Y22153231D01*
X32824771Y22337326D01*
X33065741Y22497361D01*
X33324630Y22633927D01*
X33521178Y22717503D01*
X33748987Y22793779D01*
X33995864Y22854844D01*
X34254532Y22899138D01*
X34475752Y22922252D01*
X34552774Y22928523D01*
X34619018Y22935031D01*
X34668955Y22941146D01*
X34697055Y22946240D01*
X34700964Y22947872D01*
X34707061Y22967075D01*
X34713929Y23010057D01*
X34721058Y23070956D01*
X34727936Y23143907D01*
X34734050Y23223044D01*
X34738891Y23302503D01*
X34741944Y23376420D01*
X34742757Y23426865D01*
X34744698Y23499488D01*
X34750777Y23546108D01*
X34761480Y23570170D01*
X34763227Y23571813D01*
X34774604Y23586951D01*
X34774183Y23610099D01*
X34761755Y23650699D01*
X34761464Y23651521D01*
X34746724Y23715819D01*
X34739431Y23796305D01*
X34739639Y23838490D01*
X34886512Y23838490D01*
X34888426Y23768135D01*
X34897779Y23707550D01*
X34903948Y23688075D01*
X34920296Y23647031D01*
X35116724Y23745461D01*
X35313151Y23843891D01*
X35269072Y23879561D01*
X35196164Y23928020D01*
X35111718Y23967935D01*
X35028805Y23993532D01*
X35000370Y23998308D01*
X34956015Y24002534D01*
X34931350Y23998804D01*
X34916628Y23982918D01*
X34904832Y23957142D01*
X34891995Y23905774D01*
X34886512Y23838490D01*
X34739639Y23838490D01*
X34739845Y23880379D01*
X34748222Y23955441D01*
X34754675Y23982975D01*
X34790545Y24058721D01*
X34848708Y24128553D01*
X34921828Y24184916D01*
X34976963Y24211926D01*
X35077445Y24234571D01*
X35185047Y24231243D01*
X35295051Y24203175D01*
X35402738Y24151602D01*
X35503390Y24077760D01*
X35509065Y24072682D01*
X35548308Y24038275D01*
X35578852Y24013528D01*
X35594302Y24003609D01*
X35594510Y24003594D01*
X35591991Y24015892D01*
X35578209Y24049235D01*
X35555504Y24098298D01*
X35530910Y24148431D01*
X35496074Y24215576D01*
X35468849Y24261167D01*
X35445011Y24290862D01*
X35420334Y24310317D01*
X35403123Y24319545D01*
X35335605Y24345171D01*
X35269194Y24354479D01*
X35195402Y24347546D01*
X35105737Y24324449D01*
X35098883Y24322304D01*
X34954398Y24268756D01*
X34833529Y24205924D01*
X34730878Y24130752D01*
X34685208Y24088099D01*
X34609793Y24006751D01*
X34549427Y23927708D01*
X34499526Y23843140D01*
X34455506Y23745216D01*
X34412782Y23626104D01*
X34410313Y23618581D01*
X34364474Y23478369D01*
X34179021Y23421253D01*
X34014467Y23371022D01*
X33873548Y23329188D01*
X33751771Y23294697D01*
X33644645Y23266492D01*
X33547676Y23243520D01*
X33456373Y23224725D01*
X33366243Y23209054D01*
X33272793Y23195450D01*
X33171531Y23182859D01*
X33156120Y23181077D01*
X32956639Y23158177D01*
X32866809Y23088234D01*
X32717705Y22972567D01*
X32589666Y22874198D01*
X32480755Y22791680D01*
X32389034Y22723567D01*
X32312565Y22668414D01*
X32249410Y22624774D01*
X32218018Y22604105D01*
X32147240Y22555958D01*
X32070990Y22500024D01*
X32002513Y22446130D01*
X31983477Y22430121D01*
X31933758Y22387862D01*
X31900242Y22362210D01*
X31876773Y22350263D01*
X31857198Y22349116D01*
X31835362Y22355868D01*
X31830288Y22357868D01*
X31805977Y22369961D01*
X31759718Y22395222D01*
X31695051Y22431631D01*
X31615519Y22477168D01*
X31524666Y22529813D01*
X31426032Y22587546D01*
X31382353Y22613290D01*
X31234872Y22700370D01*
X31110541Y22773715D01*
X31006976Y22834706D01*
X30921792Y22884722D01*
X30852604Y22925143D01*
X30797028Y22957348D01*
X30752678Y22982718D01*
X30717171Y23002633D01*
X30688120Y23018471D01*
X30663143Y23031613D01*
X30639853Y23043439D01*
X30633112Y23046800D01*
X30577069Y23077334D01*
X30512353Y23116471D01*
X30459960Y23150995D01*
X30368408Y23214624D01*
X30066794Y23092567D01*
X29907626Y23027189D01*
X29774313Y22970217D01*
X29664601Y22920549D01*
X29576236Y22877085D01*
X29506964Y22838724D01*
X29454531Y22804366D01*
X29421444Y22777416D01*
X29359600Y22720241D01*
X29328198Y22289984D01*
X29317889Y22146336D01*
X29309481Y22029081D01*
X29302178Y21935061D01*
X29295184Y21861117D01*
X29287705Y21804093D01*
X29278945Y21760829D01*
X29268109Y21728168D01*
X29254401Y21702953D01*
X29237026Y21682026D01*
X29215190Y21662228D01*
X29188095Y21640402D01*
X29158555Y21616413D01*
X29101264Y21569464D01*
X29031256Y21513393D01*
X28954794Y21453083D01*
X28878140Y21393419D01*
X28807559Y21339287D01*
X28749313Y21295570D01*
X28719100Y21273687D01*
X28687510Y21251432D01*
X28265128Y21251432D01*
X28260077Y21273229D01*
X28259280Y21288108D01*
X28264477Y21324500D01*
X28279688Y21386808D01*
X28304345Y21473229D01*
X28337880Y21581958D01*
X28379726Y21711190D01*
X28429313Y21859121D01*
X28486075Y22023945D01*
X28532620Y22156456D01*
X28565329Y22247355D01*
X28592663Y22317780D01*
X28618553Y22375431D01*
X28646931Y22428009D01*
X28681730Y22483214D01*
X28726880Y22548748D01*
X28748517Y22579295D01*
X28800448Y22652514D01*
X28851846Y22725313D01*
X28897662Y22790516D01*
X28932844Y22840948D01*
X28940745Y22852378D01*
X29001103Y22940007D01*
X29001103Y25488090D01*
X31288991Y25488090D01*
X31291467Y25470417D01*
X31301117Y25429403D01*
X31316626Y25370143D01*
X31336681Y25297730D01*
X31350968Y25247954D01*
X31370347Y25181129D01*
X31395697Y25093442D01*
X31425819Y24989056D01*
X31459518Y24872133D01*
X31495596Y24746835D01*
X31532858Y24617325D01*
X31570106Y24487764D01*
X31606143Y24362316D01*
X31639773Y24245142D01*
X31669800Y24140405D01*
X31695026Y24052267D01*
X31714254Y23984890D01*
X31725097Y23946672D01*
X31741877Y23898950D01*
X31757765Y23875949D01*
X31765179Y23874822D01*
X31784149Y23882382D01*
X31825999Y23898909D01*
X31885989Y23922534D01*
X31959374Y23951390D01*
X32035156Y23981153D01*
X32160937Y24030222D01*
X32265739Y24070293D01*
X32356019Y24103669D01*
X32438236Y24132649D01*
X32518848Y24159536D01*
X32604312Y24186633D01*
X32658287Y24203241D01*
X32728252Y24224864D01*
X32774496Y24240653D01*
X32801713Y24253333D01*
X32814593Y24265628D01*
X32817828Y24280265D01*
X32816654Y24295231D01*
X32810814Y24328552D01*
X32799214Y24382635D01*
X32783759Y24449575D01*
X32766353Y24521466D01*
X32748900Y24590405D01*
X32733304Y24648486D01*
X32723826Y24680623D01*
X32718766Y24692358D01*
X32709622Y24704657D01*
X32694117Y24718836D01*
X32669972Y24736210D01*
X32634910Y24758097D01*
X32586651Y24785812D01*
X32522919Y24820672D01*
X32441435Y24863993D01*
X32339921Y24917092D01*
X32216099Y24981284D01*
X32097634Y25042446D01*
X31969030Y25109238D01*
X31845377Y25174343D01*
X31729856Y25236022D01*
X31625650Y25292539D01*
X31535940Y25342155D01*
X31463908Y25383133D01*
X31412737Y25413737D01*
X31389771Y25428976D01*
X31344828Y25460421D01*
X31309899Y25481599D01*
X31290799Y25489100D01*
X31288991Y25488090D01*
X29001103Y25488090D01*
X29001103Y25698646D01*
X29001109Y26034823D01*
X29001138Y26342651D01*
X29001165Y26460228D01*
X30368319Y26460228D01*
X30388922Y26445927D01*
X30431833Y26417925D01*
X30494092Y26378073D01*
X30572738Y26328225D01*
X30664809Y26270232D01*
X30767344Y26205946D01*
X30877383Y26137221D01*
X30991964Y26065907D01*
X31108127Y25993859D01*
X31222909Y25922927D01*
X31333351Y25854965D01*
X31436491Y25791824D01*
X31449117Y25784123D01*
X31622522Y25678494D01*
X31774081Y25586480D01*
X31907218Y25506141D01*
X32025356Y25435535D01*
X32131916Y25372723D01*
X32230321Y25315762D01*
X32323996Y25262712D01*
X32416361Y25211632D01*
X32510841Y25160582D01*
X32610858Y25107620D01*
X32719834Y25050806D01*
X32841193Y24988198D01*
X32962434Y24926009D01*
X33222072Y24793044D01*
X33306043Y24634374D01*
X33341601Y24569206D01*
X33375218Y24511174D01*
X33402964Y24466855D01*
X33420104Y24443650D01*
X33442187Y24409772D01*
X33462633Y24361893D01*
X33469029Y24341123D01*
X33481646Y24300493D01*
X33492937Y24275028D01*
X33497411Y24270650D01*
X33512877Y24279018D01*
X33545607Y24301272D01*
X33589397Y24333138D01*
X33603968Y24344088D01*
X33639842Y24370254D01*
X33694187Y24408620D01*
X33763156Y24456578D01*
X33842904Y24511519D01*
X33929584Y24570834D01*
X34019352Y24631915D01*
X34108360Y24692152D01*
X34192763Y24748937D01*
X34268716Y24799660D01*
X34332372Y24841715D01*
X34379885Y24872490D01*
X34407410Y24889379D01*
X34409548Y24890538D01*
X34407929Y24885091D01*
X34387510Y24861502D01*
X34350743Y24822342D01*
X34300079Y24770178D01*
X34237970Y24707581D01*
X34181495Y24651525D01*
X34097680Y24568114D01*
X34010201Y24479762D01*
X33924832Y24392391D01*
X33847346Y24311924D01*
X33783518Y24244283D01*
X33766761Y24226140D01*
X33709598Y24165030D01*
X33656215Y24110203D01*
X33611196Y24066203D01*
X33579123Y24037577D01*
X33569561Y24030563D01*
X33538311Y24018384D01*
X33485084Y24004739D01*
X33417407Y23991348D01*
X33355393Y23981623D01*
X33010754Y23923264D01*
X32677500Y23845468D01*
X32358557Y23749218D01*
X32056856Y23635498D01*
X31775324Y23505294D01*
X31532303Y23369125D01*
X31456055Y23320905D01*
X31382484Y23271982D01*
X31315454Y23225190D01*
X31258830Y23183366D01*
X31216474Y23149348D01*
X31192250Y23125971D01*
X31188580Y23116778D01*
X31202781Y23105861D01*
X31237653Y23080206D01*
X31289725Y23042333D01*
X31355527Y22994759D01*
X31431590Y22940002D01*
X31482960Y22903135D01*
X31577349Y22835985D01*
X31651004Y22784933D01*
X31706863Y22748186D01*
X31747863Y22723949D01*
X31776944Y22710430D01*
X31797043Y22705835D01*
X31805191Y22706431D01*
X31830631Y22715444D01*
X31877210Y22735433D01*
X31939591Y22763975D01*
X32012438Y22798648D01*
X32064829Y22824293D01*
X32172915Y22880429D01*
X32269391Y22935683D01*
X32348209Y22986466D01*
X32388211Y23016269D01*
X32444465Y23060215D01*
X32514814Y23112726D01*
X32588629Y23165957D01*
X32633012Y23196939D01*
X32695894Y23240500D01*
X32755099Y23282189D01*
X32803216Y23316749D01*
X32829111Y23336013D01*
X32863049Y23357305D01*
X32908967Y23377253D01*
X32968920Y23396231D01*
X33044963Y23414614D01*
X33139152Y23432776D01*
X33253542Y23451090D01*
X33390187Y23469930D01*
X33551144Y23489670D01*
X33738468Y23510685D01*
X33860039Y23523608D01*
X33963603Y23534552D01*
X34057050Y23544648D01*
X34136447Y23553453D01*
X34197859Y23560525D01*
X34237351Y23565419D01*
X34250961Y23567630D01*
X34251072Y23582801D01*
X34248428Y23623083D01*
X34243400Y23684080D01*
X34236356Y23761395D01*
X34227665Y23850632D01*
X34224823Y23878774D01*
X34215758Y23970901D01*
X34208324Y24052602D01*
X34202876Y24119432D01*
X34199769Y24166946D01*
X34199356Y24190699D01*
X34199796Y24192513D01*
X34215727Y24198582D01*
X34254629Y24210575D01*
X34310791Y24226802D01*
X34378504Y24245571D01*
X34384033Y24247073D01*
X34462917Y24269340D01*
X34519973Y24288242D01*
X34562318Y24306944D01*
X34597070Y24328610D01*
X34631346Y24356406D01*
X34632806Y24357687D01*
X34741117Y24435453D01*
X34868633Y24497583D01*
X35007861Y24541397D01*
X35151309Y24564214D01*
X35217575Y24566923D01*
X35312119Y24557244D01*
X35417564Y24530438D01*
X35523478Y24490002D01*
X35619433Y24439438D01*
X35642539Y24424326D01*
X35687139Y24389691D01*
X35743659Y24340144D01*
X35804193Y24282848D01*
X35850729Y24235688D01*
X35975786Y24104290D01*
X36052720Y24131946D01*
X36100767Y24153498D01*
X36129501Y24175408D01*
X36134530Y24184926D01*
X36128169Y24207775D01*
X36106546Y24249467D01*
X36072745Y24305525D01*
X36029853Y24371471D01*
X35980954Y24442829D01*
X35929133Y24515120D01*
X35877476Y24583867D01*
X35829067Y24644593D01*
X35786992Y24692820D01*
X35778314Y24701900D01*
X35723939Y24753893D01*
X35664711Y24804955D01*
X35611882Y24845480D01*
X35603192Y24851397D01*
X35570722Y24872119D01*
X35541681Y24887443D01*
X35510094Y24898884D01*
X35469988Y24907956D01*
X35415387Y24916173D01*
X35340317Y24925052D01*
X35291627Y24930387D01*
X35177034Y24943151D01*
X35063787Y24956374D01*
X34955779Y24969545D01*
X34856899Y24982150D01*
X34771039Y24993680D01*
X34702091Y25003623D01*
X34653945Y25011466D01*
X34630492Y25016699D01*
X34628988Y25017492D01*
X34637883Y25025517D01*
X34667918Y25039257D01*
X34701047Y25051636D01*
X34734802Y25061720D01*
X34772731Y25069069D01*
X34820037Y25074082D01*
X34881925Y25077160D01*
X34963599Y25078703D01*
X35058055Y25079111D01*
X35145223Y25079406D01*
X35221212Y25080153D01*
X35281434Y25081266D01*
X35321301Y25082659D01*
X35336224Y25084246D01*
X35336239Y25084298D01*
X35329886Y25098773D01*
X35312764Y25133640D01*
X35287816Y25182973D01*
X35269645Y25218351D01*
X35229970Y25300165D01*
X35202256Y25372303D01*
X35185217Y25442479D01*
X35177569Y25518406D01*
X35178026Y25607800D01*
X35185305Y25718374D01*
X35185661Y25722645D01*
X35192932Y25831130D01*
X35198112Y25953808D01*
X35201189Y26084115D01*
X35202151Y26215485D01*
X35200985Y26341353D01*
X35197678Y26455153D01*
X35192217Y26550322D01*
X35187351Y26600361D01*
X35167911Y26725177D01*
X35140707Y26851373D01*
X35107553Y26973152D01*
X35070262Y27084720D01*
X35030646Y27180280D01*
X34990519Y27254035D01*
X34976814Y27273464D01*
X34964576Y27286672D01*
X34950641Y27289964D01*
X34928762Y27281395D01*
X34892693Y27259020D01*
X34860132Y27237137D01*
X34810682Y27201136D01*
X34747758Y27151736D01*
X34679705Y27095644D01*
X34619227Y27043444D01*
X34473391Y26914186D01*
X34344753Y26890954D01*
X34237728Y26871766D01*
X34154265Y26857555D01*
X34088733Y26847967D01*
X34035503Y26842647D01*
X33988947Y26841242D01*
X33943433Y26843397D01*
X33893334Y26848759D01*
X33833020Y26856973D01*
X33824283Y26858211D01*
X33595550Y26901234D01*
X33383483Y26962472D01*
X33189371Y27040860D01*
X33014502Y27135332D01*
X32860167Y27244825D01*
X32727655Y27368273D01*
X32618255Y27504611D01*
X32533256Y27652774D01*
X32473947Y27811697D01*
X32441619Y27980315D01*
X32439539Y28002016D01*
X32435495Y28026491D01*
X32423952Y28041892D01*
X32397991Y28052687D01*
X32350689Y28063343D01*
X32341761Y28065119D01*
X32277960Y28080870D01*
X32204002Y28103670D01*
X32141469Y28126441D01*
X32090920Y28146375D01*
X32052652Y28160742D01*
X32033495Y28166997D01*
X32032518Y28167028D01*
X32029039Y28152491D01*
X32021831Y28115138D01*
X32012106Y28061411D01*
X32005588Y28024106D01*
X31989093Y27944791D01*
X31965623Y27860600D01*
X31933808Y27768094D01*
X31892279Y27663836D01*
X31839667Y27544385D01*
X31774602Y27406304D01*
X31696104Y27246931D01*
X31634761Y27125893D01*
X31583244Y27028777D01*
X31539100Y26952494D01*
X31499875Y26893953D01*
X31463114Y26850065D01*
X31426363Y26817741D01*
X31387168Y26793890D01*
X31343074Y26775422D01*
X31313997Y26765871D01*
X31260915Y26752327D01*
X31187770Y26737378D01*
X31103999Y26722793D01*
X31019042Y26710340D01*
X31014644Y26709768D01*
X30813320Y26683762D01*
X30699752Y26769240D01*
X30650707Y26805360D01*
X30611365Y26832835D01*
X30587052Y26848028D01*
X30581903Y26849746D01*
X30570522Y26832127D01*
X30549017Y26795277D01*
X30520402Y26744696D01*
X30487695Y26685886D01*
X30453910Y26624346D01*
X30422065Y26565579D01*
X30395176Y26515084D01*
X30376259Y26478362D01*
X30368329Y26460914D01*
X30368319Y26460228D01*
X29001165Y26460228D01*
X29001202Y26623451D01*
X29001315Y26878548D01*
X29001490Y27109264D01*
X29001741Y27316921D01*
X29002080Y27502844D01*
X29002521Y27668354D01*
X29003077Y27814776D01*
X29003763Y27943431D01*
X29004590Y28055644D01*
X29005572Y28152736D01*
X29006723Y28236031D01*
X29008056Y28306852D01*
X29009584Y28366521D01*
X29011320Y28416363D01*
X29013279Y28457699D01*
X29015472Y28491853D01*
X29017914Y28520148D01*
X29020618Y28543906D01*
X29023596Y28564451D01*
X29026864Y28583106D01*
X29030304Y28600562D01*
X29078145Y28781235D01*
X29093020Y28817376D01*
X29649706Y28817376D01*
X29670428Y28606917D01*
X29719543Y28393616D01*
X29796907Y28178377D01*
X29902379Y27962104D01*
X30019916Y27769269D01*
X30070436Y27695441D01*
X30120693Y27626465D01*
X30173923Y27558591D01*
X30233364Y27488067D01*
X30302255Y27411146D01*
X30383831Y27324076D01*
X30481331Y27223107D01*
X30565088Y27137793D01*
X30861495Y26837355D01*
X31047741Y26838786D01*
X31128102Y26840760D01*
X31205974Y26845044D01*
X31272034Y26850989D01*
X31314189Y26857331D01*
X31377501Y26877170D01*
X31417026Y26905610D01*
X31421794Y26911538D01*
X31435938Y26936854D01*
X31458603Y26984690D01*
X31487518Y27049925D01*
X31520411Y27127439D01*
X31553468Y27208266D01*
X31621898Y27379539D01*
X31679689Y27527029D01*
X31727695Y27654311D01*
X31766769Y27764959D01*
X31797765Y27862548D01*
X31821537Y27950653D01*
X31838938Y28032847D01*
X31850823Y28112705D01*
X31858046Y28193801D01*
X31861023Y28268700D01*
X32510676Y28268700D01*
X32512055Y28115638D01*
X32517906Y28058347D01*
X32552839Y27896633D01*
X32615428Y27741278D01*
X32703996Y27594152D01*
X32816869Y27457125D01*
X32952370Y27332068D01*
X33108823Y27220850D01*
X33284554Y27125342D01*
X33397414Y27076798D01*
X33533638Y27023521D01*
X33815530Y27023376D01*
X33915212Y27023545D01*
X33990992Y27024554D01*
X34048639Y27026978D01*
X34093924Y27031393D01*
X34132616Y27038375D01*
X34170484Y27048498D01*
X34213298Y27062340D01*
X34216361Y27063373D01*
X34351416Y27116253D01*
X34465455Y27177958D01*
X34566863Y27253299D01*
X34601584Y27284397D01*
X34694662Y27371467D01*
X34967246Y27371388D01*
X35096040Y27370052D01*
X35203672Y27365752D01*
X35298554Y27357928D01*
X35389097Y27346020D01*
X35417867Y27341366D01*
X35500382Y27325818D01*
X35603001Y27303882D01*
X35719915Y27277033D01*
X35845315Y27246747D01*
X35973395Y27214500D01*
X36098344Y27181767D01*
X36214357Y27150025D01*
X36315624Y27120748D01*
X36396338Y27095413D01*
X36425027Y27085466D01*
X36487064Y27062302D01*
X36527484Y27044223D01*
X36552747Y27026718D01*
X36569313Y27005279D01*
X36583644Y26975397D01*
X36584035Y26974490D01*
X36625269Y26895263D01*
X36682273Y26807955D01*
X36747635Y26723012D01*
X36812892Y26651900D01*
X36849477Y26611388D01*
X36891068Y26557741D01*
X36933136Y26497796D01*
X36971152Y26438387D01*
X37000588Y26386349D01*
X37016914Y26348518D01*
X37018493Y26341583D01*
X37028886Y26318523D01*
X37050805Y26285939D01*
X37054051Y26281742D01*
X37076468Y26245297D01*
X37086876Y26212714D01*
X37086967Y26210399D01*
X37078266Y26184118D01*
X37054926Y26142257D01*
X37021096Y26090360D01*
X36980922Y26033971D01*
X36938551Y25978636D01*
X36898130Y25929899D01*
X36863806Y25893306D01*
X36839725Y25874400D01*
X36834612Y25872986D01*
X36831062Y25887000D01*
X36828562Y25925780D01*
X36827243Y25984434D01*
X36827234Y26058069D01*
X36828103Y26117187D01*
X36833115Y26361389D01*
X36774848Y26407536D01*
X36738900Y26432477D01*
X36711432Y26445215D01*
X36702848Y26445196D01*
X36689110Y26429944D01*
X36663195Y26395720D01*
X36629350Y26348264D01*
X36605660Y26313851D01*
X36522207Y26190994D01*
X36631472Y25954099D01*
X36693559Y25817762D01*
X36743431Y25703147D01*
X36782355Y25605544D01*
X36811601Y25520244D01*
X36832437Y25442535D01*
X36846130Y25367708D01*
X36853951Y25291053D01*
X36857166Y25207859D01*
X36857083Y25116327D01*
X36854113Y25012829D01*
X36847020Y24924847D01*
X36834095Y24843197D01*
X36813633Y24758691D01*
X36783926Y24662145D01*
X36759218Y24589633D01*
X36741497Y24541385D01*
X36717291Y24478945D01*
X36688782Y24407564D01*
X36658152Y24332492D01*
X36627584Y24258979D01*
X36599261Y24192277D01*
X36575363Y24137635D01*
X36558075Y24100303D01*
X36549720Y24085623D01*
X36535390Y24079378D01*
X36497294Y24063464D01*
X36439142Y24039413D01*
X36364647Y24008756D01*
X36277518Y23973025D01*
X36196780Y23940004D01*
X36016666Y23866254D01*
X35843720Y23795102D01*
X35680336Y23727553D01*
X35528906Y23664607D01*
X35391822Y23607268D01*
X35271477Y23556538D01*
X35170263Y23513419D01*
X35090573Y23478915D01*
X35034799Y23454027D01*
X35016573Y23445475D01*
X34928264Y23402717D01*
X34919182Y23046227D01*
X34916199Y22944591D01*
X34912723Y22851435D01*
X34908983Y22771328D01*
X34905210Y22708841D01*
X34901632Y22668542D01*
X34899562Y22656538D01*
X34897038Y22604903D01*
X34915757Y22551533D01*
X34950571Y22508260D01*
X34969629Y22495484D01*
X35025614Y22476563D01*
X35097725Y22465576D01*
X35173268Y22463414D01*
X35239545Y22470964D01*
X35256228Y22475417D01*
X35308729Y22497850D01*
X35358946Y22527579D01*
X35362680Y22530302D01*
X35411349Y22566655D01*
X35402390Y22695375D01*
X35400826Y22816160D01*
X35413073Y22920533D01*
X35432714Y23016970D01*
X35616986Y23109639D01*
X35683951Y23142672D01*
X35740973Y23169583D01*
X35783109Y23188130D01*
X35805413Y23196075D01*
X35807569Y23195998D01*
X35804441Y23183362D01*
X35789040Y23150495D01*
X35760851Y23096445D01*
X35719359Y23020258D01*
X35664049Y22920984D01*
X35594407Y22797670D01*
X35549162Y22718123D01*
X35454942Y22552804D01*
X35477829Y22287866D01*
X35490720Y22162043D01*
X35506908Y22041065D01*
X35525514Y21929461D01*
X35545653Y21831760D01*
X35566445Y21752491D01*
X35587007Y21696184D01*
X35596400Y21678850D01*
X35628571Y21643464D01*
X35673610Y21619556D01*
X35735890Y21605979D01*
X35819787Y21601589D01*
X35885935Y21603033D01*
X35952198Y21606611D01*
X36007885Y21611196D01*
X36046006Y21616121D01*
X36058730Y21619549D01*
X36064750Y21637265D01*
X36057833Y21676850D01*
X36043941Y21722418D01*
X36029895Y21770752D01*
X36020586Y21821240D01*
X36015146Y21881740D01*
X36012704Y21960105D01*
X36012338Y22008091D01*
X36012736Y22091679D01*
X36015158Y22153748D01*
X36020652Y22202439D01*
X36030267Y22245890D01*
X36045052Y22292240D01*
X36051174Y22309364D01*
X36106279Y22435329D01*
X36180723Y22567891D01*
X36268879Y22698975D01*
X36365125Y22820504D01*
X36463835Y22924403D01*
X36505274Y22961343D01*
X36580457Y23024408D01*
X36546529Y22939089D01*
X36483517Y22779946D01*
X36431036Y22645529D01*
X36388247Y22533156D01*
X36354311Y22440146D01*
X36328388Y22363817D01*
X36309638Y22301488D01*
X36297222Y22250477D01*
X36290301Y22208101D01*
X36288034Y22171680D01*
X36289584Y22138532D01*
X36291321Y22123830D01*
X36303451Y22071464D01*
X36327101Y22000389D01*
X36360295Y21914643D01*
X36401055Y21818263D01*
X36447404Y21715286D01*
X36497366Y21609751D01*
X36548964Y21505695D01*
X36600222Y21407156D01*
X36649161Y21318170D01*
X36693806Y21242776D01*
X36732179Y21185012D01*
X36762304Y21148914D01*
X36772605Y21140837D01*
X36805508Y21128623D01*
X36847608Y21128136D01*
X36906534Y21139634D01*
X36931184Y21146161D01*
X37017385Y21172750D01*
X37074991Y21197177D01*
X37104962Y21219956D01*
X37108499Y21241048D01*
X37085700Y21299022D01*
X37058123Y21375842D01*
X37028467Y21463245D01*
X36999428Y21552969D01*
X36973703Y21636750D01*
X36953988Y21706326D01*
X36945748Y21739685D01*
X36926605Y21879391D01*
X36925991Y22041364D01*
X36943820Y22224768D01*
X36980002Y22428764D01*
X37034451Y22652514D01*
X37045958Y22694021D01*
X37080413Y22816165D01*
X37160436Y22575329D01*
X37192623Y22476914D01*
X37226607Y22370397D01*
X37259019Y22266494D01*
X37286493Y22175922D01*
X37294873Y22147452D01*
X37317475Y22070907D01*
X37336125Y22014746D01*
X37355153Y21970857D01*
X37378886Y21931129D01*
X37411653Y21887451D01*
X37457782Y21831712D01*
X37473013Y21813632D01*
X37525409Y21751925D01*
X37576275Y21692807D01*
X37619758Y21643037D01*
X37649709Y21609687D01*
X37681398Y21578777D01*
X37725620Y21539845D01*
X37776810Y21497285D01*
X37829403Y21455495D01*
X37877833Y21418869D01*
X37916535Y21391804D01*
X37939944Y21378694D01*
X37942896Y21378116D01*
X37963088Y21388922D01*
X37999286Y21417707D01*
X38047620Y21460594D01*
X38104222Y21513701D01*
X38165222Y21573148D01*
X38226753Y21635055D01*
X38284945Y21695542D01*
X38335930Y21750729D01*
X38375838Y21796736D01*
X38400801Y21829683D01*
X38407411Y21843987D01*
X38395777Y21855273D01*
X38364721Y21878089D01*
X38320015Y21908284D01*
X38299847Y21921343D01*
X38206206Y21984046D01*
X38130867Y22041926D01*
X38065162Y22102545D01*
X38000426Y22173460D01*
X37972366Y22207006D01*
X37886137Y22317114D01*
X37820111Y22414134D01*
X37771415Y22503637D01*
X37737180Y22591192D01*
X37714534Y22682371D01*
X37708344Y22719300D01*
X37700462Y22815070D01*
X37701061Y22932128D01*
X37709558Y23063504D01*
X37725372Y23202230D01*
X37747923Y23341338D01*
X37768461Y23439809D01*
X37805453Y23596801D01*
X37845236Y23760042D01*
X37886836Y23925918D01*
X37929276Y24090813D01*
X37971582Y24251112D01*
X38012777Y24403201D01*
X38051887Y24543465D01*
X38087936Y24668288D01*
X38119947Y24774057D01*
X38146946Y24857155D01*
X38162843Y24901199D01*
X38245401Y25125269D01*
X38319816Y25349067D01*
X38385057Y25568542D01*
X38440089Y25779641D01*
X38483881Y25978313D01*
X38515398Y26160507D01*
X38533609Y26322171D01*
X38536335Y26366298D01*
X38538928Y26437245D01*
X38539527Y26496062D01*
X38538192Y26537203D01*
X38534980Y26555121D01*
X38534328Y26555463D01*
X38517992Y26546388D01*
X38487327Y26522941D01*
X38459452Y26499316D01*
X38406791Y26457942D01*
X38346376Y26417378D01*
X38320144Y26402066D01*
X38276435Y26380633D01*
X38221913Y26357214D01*
X38163407Y26334303D01*
X38107749Y26314397D01*
X38061768Y26299991D01*
X38032296Y26293580D01*
X38025534Y26294427D01*
X38033352Y26305232D01*
X38059735Y26327034D01*
X38088872Y26348058D01*
X38154291Y26398549D01*
X38224203Y26461623D01*
X38292649Y26530979D01*
X38353672Y26600316D01*
X38401313Y26663333D01*
X38425247Y26703827D01*
X38455533Y26780697D01*
X38481825Y26872835D01*
X38501204Y26967658D01*
X38510753Y27052580D01*
X38511261Y27074738D01*
X38505206Y27151432D01*
X38489553Y27243134D01*
X38466938Y27338732D01*
X38439996Y27427111D01*
X38411364Y27497159D01*
X38410823Y27498236D01*
X38319028Y27648017D01*
X38201684Y27786422D01*
X38061341Y27911610D01*
X37900549Y28021736D01*
X37721860Y28114960D01*
X37527825Y28189437D01*
X37406124Y28224103D01*
X37252889Y28247970D01*
X37095998Y28245617D01*
X36942322Y28217741D01*
X36798733Y28165045D01*
X36791251Y28161434D01*
X36686732Y28098896D01*
X36580303Y28014663D01*
X36479119Y27915295D01*
X36390333Y27807352D01*
X36364203Y27769805D01*
X36342862Y27742027D01*
X36318176Y27721647D01*
X36286387Y27708393D01*
X36243735Y27701994D01*
X36186463Y27702176D01*
X36110812Y27708668D01*
X36013023Y27721198D01*
X35907469Y27736730D01*
X35737484Y27765454D01*
X35550229Y27802719D01*
X35343429Y27849048D01*
X35114807Y27904965D01*
X34862086Y27970993D01*
X34716282Y28010628D01*
X34533973Y28060783D01*
X34451719Y28168173D01*
X34387210Y28245676D01*
X34309073Y28329171D01*
X34224453Y28411791D01*
X34140493Y28486670D01*
X34064338Y28546939D01*
X34040205Y28563739D01*
X33886277Y28650756D01*
X33768356Y28699330D01*
X34099425Y28699330D01*
X34163305Y28657110D01*
X34212597Y28619929D01*
X34275143Y28566006D01*
X34344920Y28501158D01*
X34415905Y28431203D01*
X34482077Y28361959D01*
X34537412Y28299243D01*
X34550836Y28282776D01*
X34589996Y28235602D01*
X34622060Y28205421D01*
X34657374Y28185221D01*
X34706284Y28167989D01*
X34731102Y28160611D01*
X34819590Y28135964D01*
X34919626Y28110396D01*
X35034690Y28083108D01*
X35168264Y28053305D01*
X35323829Y28020188D01*
X35504866Y27982961D01*
X35521722Y27979545D01*
X35631092Y27957313D01*
X35738355Y27935350D01*
X35837697Y27914857D01*
X35923303Y27897036D01*
X35989361Y27883090D01*
X36018743Y27876744D01*
X36097161Y27859913D01*
X36152695Y27850656D01*
X36191460Y27850258D01*
X36219572Y27860004D01*
X36243145Y27881179D01*
X36268294Y27915067D01*
X36279535Y27931543D01*
X36322051Y27989534D01*
X36373039Y28052767D01*
X36411820Y28096933D01*
X36450334Y28140831D01*
X36468423Y28168185D01*
X36467922Y28182075D01*
X36463836Y28184280D01*
X36446253Y28192347D01*
X36405057Y28212446D01*
X36343087Y28243157D01*
X36263179Y28283061D01*
X36168170Y28330740D01*
X36060898Y28384775D01*
X35944200Y28443744D01*
X35870910Y28480868D01*
X35300238Y28770189D01*
X35151342Y28760970D01*
X35091827Y28757513D01*
X35009451Y28753052D01*
X34910992Y28747936D01*
X34803231Y28742515D01*
X34692949Y28737139D01*
X34653789Y28735276D01*
X34548005Y28730066D01*
X34445778Y28724644D01*
X34352973Y28719350D01*
X34275457Y28714526D01*
X34219095Y28710510D01*
X34202279Y28709065D01*
X34099425Y28699330D01*
X33768356Y28699330D01*
X33713040Y28722116D01*
X33527464Y28775948D01*
X33336516Y28810383D01*
X33147162Y28823552D01*
X33075798Y28822541D01*
X32996149Y28818347D01*
X32937145Y28811974D01*
X32889760Y28801748D01*
X32844972Y28785997D01*
X32819746Y28775083D01*
X32718047Y28713658D01*
X32635618Y28630709D01*
X32573131Y28527834D01*
X32531259Y28406632D01*
X32510676Y28268700D01*
X31861023Y28268700D01*
X31861460Y28279709D01*
X31861918Y28374005D01*
X31860276Y28480262D01*
X31860031Y28491619D01*
X31857077Y28602588D01*
X31853168Y28691665D01*
X31847516Y28766633D01*
X31839334Y28835272D01*
X31827836Y28905363D01*
X31812236Y28984688D01*
X31808258Y29003756D01*
X31788786Y29090644D01*
X31767299Y29177025D01*
X31746144Y29254010D01*
X31727666Y29312710D01*
X31724159Y29322378D01*
X31647540Y29490392D01*
X31545865Y29656974D01*
X31423315Y29815638D01*
X31363305Y29881853D01*
X31315160Y29929092D01*
X31272003Y29961059D01*
X31221615Y29985462D01*
X31169171Y30004289D01*
X30982593Y30055012D01*
X30800690Y30082040D01*
X30626502Y30085392D01*
X30463066Y30065088D01*
X30313421Y30021146D01*
X30261262Y29998474D01*
X30123619Y29916277D01*
X30001140Y29808619D01*
X29893905Y29675590D01*
X29801993Y29517282D01*
X29759316Y29422668D01*
X29694007Y29226155D01*
X29657518Y29024090D01*
X29649706Y28817376D01*
X29093020Y28817376D01*
X29145846Y28945729D01*
X29236048Y29098747D01*
X29351392Y29244992D01*
X29449280Y29346599D01*
X29514572Y29413403D01*
X29562557Y29472413D01*
X29600247Y29532838D01*
X29618644Y29568997D01*
X29713335Y29739879D01*
X29822073Y29885782D01*
X29946421Y30008643D01*
X30017399Y30063805D01*
X30101417Y30120141D01*
X30178397Y30162045D01*
X30259849Y30194793D01*
X30357286Y30223662D01*
X30377533Y30228885D01*
X30555237Y30259188D01*
X30743335Y30263245D01*
X30938871Y30241311D01*
G37*
%TD*%
%LPC*%
D13*
%TO.C,U1*%
X12801600Y5994400D03*
X17881600Y5994400D03*
X22961600Y5994400D03*
X28041600Y5994400D03*
X33121600Y5994400D03*
X38201600Y5994400D03*
X43281600Y5994400D03*
X48361600Y5994400D03*
X53441600Y5994400D03*
%TD*%
D14*
%TO.C,MH2*%
X61500000Y52500000D03*
%TD*%
D15*
%TO.C,C5*%
X45483400Y18288000D03*
X44483400Y18288000D03*
%TD*%
D16*
%TO.C,C7*%
X29682000Y34036000D03*
X31242000Y34036000D03*
%TD*%
D17*
%TO.C,U2*%
X43154100Y34163000D03*
X43154100Y35433000D03*
X43154100Y36703000D03*
X43154100Y37973000D03*
X43154100Y39243000D03*
X43154100Y40513000D03*
X43154100Y41783000D03*
X43154100Y43053000D03*
X43154100Y44323000D03*
X33553900Y44323000D03*
X33553900Y43053000D03*
X33553900Y41783000D03*
X33553900Y40513000D03*
X33553900Y39243000D03*
X33553900Y37973000D03*
X33553900Y36703000D03*
X33553900Y35433000D03*
X33553900Y34163000D03*
%TD*%
D18*
%TO.C,X1*%
X50122000Y43552000D03*
X47922000Y43552000D03*
X47922000Y41792000D03*
X50122000Y41792000D03*
%TD*%
D14*
%TO.C,MH3*%
X3500000Y3500000D03*
%TD*%
%TO.C,MH1*%
X3500000Y52500000D03*
%TD*%
D19*
%TO.C,R5*%
X48920400Y18288000D03*
X47280400Y18288000D03*
%TD*%
D20*
%TO.C,U4*%
X47623600Y31729600D03*
X47623600Y30459600D03*
X47623600Y29179600D03*
X47623600Y27909600D03*
X53163600Y27909600D03*
X53163600Y29179600D03*
X53163600Y30459600D03*
X53163600Y31729600D03*
%TD*%
D21*
%TO.C,C4*%
X55972200Y18237200D03*
X56972200Y18237200D03*
%TD*%
D22*
%TO.C,C3*%
X44907200Y28988800D03*
X44907200Y30548800D03*
%TD*%
D23*
%TO.C,R2*%
X52604200Y18237200D03*
X54244200Y18237200D03*
%TD*%
D24*
%TO.C,C1*%
X51891000Y42485100D03*
X51891000Y43485100D03*
%TD*%
D21*
%TO.C,R3*%
X30750000Y35433000D03*
X31750000Y35433000D03*
%TD*%
D14*
%TO.C,MH4*%
X61500000Y3500000D03*
%TD*%
D25*
%TO.C,R4*%
X55803800Y28923600D03*
X55803800Y30563600D03*
%TD*%
D24*
%TO.C,R1*%
X53136800Y33358200D03*
X53136800Y34358200D03*
%TD*%
D15*
%TO.C,C2*%
X49649000Y40386000D03*
X48649000Y40386000D03*
%TD*%
D26*
%TO.C,J1*%
X8370000Y51230000D03*
D27*
X8370000Y53770000D03*
X10910000Y51230000D03*
X10910000Y53770000D03*
X13450000Y51230000D03*
X13450000Y53770000D03*
X15990000Y51230000D03*
X15990000Y53770000D03*
X18530000Y51230000D03*
X18530000Y53770000D03*
X21070000Y51230000D03*
X21070000Y53770000D03*
X23610000Y51230000D03*
X23610000Y53770000D03*
X26150000Y51230000D03*
X26150000Y53770000D03*
X28690000Y51230000D03*
X28690000Y53770000D03*
X31230000Y51230000D03*
X31230000Y53770000D03*
X33770000Y51230000D03*
X33770000Y53770000D03*
X36310000Y51230000D03*
X36310000Y53770000D03*
X38850000Y51230000D03*
X38850000Y53770000D03*
X41390000Y51230000D03*
X41390000Y53770000D03*
X43930000Y51230000D03*
X43930000Y53770000D03*
X46470000Y51230000D03*
X46470000Y53770000D03*
X49010000Y51230000D03*
X49010000Y53770000D03*
X51550000Y51230000D03*
X51550000Y53770000D03*
X54090000Y51230000D03*
X54090000Y53770000D03*
X56630000Y51230000D03*
X56630000Y53770000D03*
%TD*%
%LPD*%
M02*
