%TF.GenerationSoftware,KiCad,Pcbnew,8.0.9*%
%TF.CreationDate,2025-09-23T01:05:25+07:00*%
%TF.ProjectId,CAN_Shield,43414e5f-5368-4696-956c-642e6b696361,rev?*%
%TF.SameCoordinates,Original*%
%TF.FileFunction,Soldermask,Top*%
%TF.FilePolarity,Negative*%
%FSLAX46Y46*%
G04 Gerber Fmt 4.6, Leading zero omitted, Abs format (unit mm)*
G04 Created by KiCad (PCBNEW 8.0.9) date 2025-09-23 01:05:25*
%MOMM*%
%LPD*%
G01*
G04 APERTURE LIST*
G04 Aperture macros list*
%AMRoundRect*
0 Rectangle with rounded corners*
0 $1 Rounding radius*
0 $2 $3 $4 $5 $6 $7 $8 $9 X,Y pos of 4 corners*
0 Add a 4 corners polygon primitive as box body*
4,1,4,$2,$3,$4,$5,$6,$7,$8,$9,$2,$3,0*
0 Add four circle primitives for the rounded corners*
1,1,$1+$1,$2,$3*
1,1,$1+$1,$4,$5*
1,1,$1+$1,$6,$7*
1,1,$1+$1,$8,$9*
0 Add four rect primitives between the rounded corners*
20,1,$1+$1,$2,$3,$4,$5,0*
20,1,$1+$1,$4,$5,$6,$7,0*
20,1,$1+$1,$6,$7,$8,$9,0*
20,1,$1+$1,$8,$9,$2,$3,0*%
G04 Aperture macros list end*
%ADD10RoundRect,0.050800X-1.100000X-1.100000X1.100000X-1.100000X1.100000X1.100000X-1.100000X1.100000X0*%
%ADD11O,2.301600X2.301600*%
%ADD12RoundRect,0.140000X-0.140000X-0.170000X0.140000X-0.170000X0.140000X0.170000X-0.140000X0.170000X0*%
%ADD13C,2.700000*%
%ADD14RoundRect,0.150000X-0.875000X-0.150000X0.875000X-0.150000X0.875000X0.150000X-0.875000X0.150000X0*%
%ADD15RoundRect,0.250000X-0.450000X-0.350000X0.450000X-0.350000X0.450000X0.350000X-0.450000X0.350000X0*%
%ADD16RoundRect,0.135000X-0.135000X-0.185000X0.135000X-0.185000X0.135000X0.185000X-0.135000X0.185000X0*%
%ADD17O,0.590000X2.050000*%
%ADD18R,1.700000X1.700000*%
%ADD19O,1.700000X1.700000*%
G04 APERTURE END LIST*
D10*
%TO.C,U1*%
X27332900Y6604000D03*
D11*
X30833100Y6604000D03*
%TD*%
D12*
%TO.C,C1*%
X34229000Y30972000D03*
X35189000Y30972000D03*
%TD*%
D13*
%TO.C,MH2*%
X61500000Y52500000D03*
%TD*%
D12*
%TO.C,C4*%
X34229000Y25062000D03*
X35189000Y25062000D03*
%TD*%
D14*
%TO.C,U2*%
X35355000Y45974000D03*
X35355000Y44704000D03*
X35355000Y43434000D03*
X35355000Y42164000D03*
X35355000Y40894000D03*
X35355000Y39624000D03*
X35355000Y38354000D03*
X35355000Y37084000D03*
X35355000Y35814000D03*
X44655000Y35814000D03*
X44655000Y37084000D03*
X44655000Y38354000D03*
X44655000Y39624000D03*
X44655000Y40894000D03*
X44655000Y42164000D03*
X44655000Y43434000D03*
X44655000Y44704000D03*
X44655000Y45974000D03*
%TD*%
D15*
%TO.C,X1*%
X20619000Y28057000D03*
X22819000Y28057000D03*
X22819000Y29817000D03*
X20619000Y29817000D03*
%TD*%
D16*
%TO.C,R1*%
X37089000Y30962000D03*
X38109000Y30962000D03*
%TD*%
D12*
%TO.C,C2*%
X34229000Y29002000D03*
X35189000Y29002000D03*
%TD*%
D17*
%TO.C,U4*%
X40249000Y24892000D03*
X41519000Y24892000D03*
X42799000Y24892000D03*
X44069000Y24892000D03*
X44069000Y30432000D03*
X42799000Y30432000D03*
X41519000Y30432000D03*
X40249000Y30432000D03*
%TD*%
D13*
%TO.C,MH3*%
X3500000Y3500000D03*
%TD*%
%TO.C,MH1*%
X3500000Y52500000D03*
%TD*%
D12*
%TO.C,C3*%
X34229000Y27032000D03*
X35189000Y27032000D03*
%TD*%
D16*
%TO.C,R3*%
X37089000Y26982000D03*
X38109000Y26982000D03*
%TD*%
D13*
%TO.C,MH4*%
X61500000Y3500000D03*
%TD*%
D12*
%TO.C,C6*%
X34229000Y21122000D03*
X35189000Y21122000D03*
%TD*%
D16*
%TO.C,R5*%
X37089000Y23002000D03*
X38109000Y23002000D03*
%TD*%
%TO.C,R2*%
X37089000Y28972000D03*
X38109000Y28972000D03*
%TD*%
D12*
%TO.C,C5*%
X34229000Y23092000D03*
X35189000Y23092000D03*
%TD*%
D16*
%TO.C,R4*%
X37089000Y24992000D03*
X38109000Y24992000D03*
%TD*%
D18*
%TO.C,J1*%
X8370000Y51230000D03*
D19*
X8370000Y53770000D03*
X10910000Y51230000D03*
X10910000Y53770000D03*
X13450000Y51230000D03*
X13450000Y53770000D03*
X15990000Y51230000D03*
X15990000Y53770000D03*
X18530000Y51230000D03*
X18530000Y53770000D03*
X21070000Y51230000D03*
X21070000Y53770000D03*
X23610000Y51230000D03*
X23610000Y53770000D03*
X26150000Y51230000D03*
X26150000Y53770000D03*
X28690000Y51230000D03*
X28690000Y53770000D03*
X31230000Y51230000D03*
X31230000Y53770000D03*
X33770000Y51230000D03*
X33770000Y53770000D03*
X36310000Y51230000D03*
X36310000Y53770000D03*
X38850000Y51230000D03*
X38850000Y53770000D03*
X41390000Y51230000D03*
X41390000Y53770000D03*
X43930000Y51230000D03*
X43930000Y53770000D03*
X46470000Y51230000D03*
X46470000Y53770000D03*
X49010000Y51230000D03*
X49010000Y53770000D03*
X51550000Y51230000D03*
X51550000Y53770000D03*
X54090000Y51230000D03*
X54090000Y53770000D03*
X56630000Y51230000D03*
X56630000Y53770000D03*
%TD*%
M02*
