%TF.GenerationSoftware,KiCad,Pcbnew,8.0.9*%
%TF.CreationDate,2025-09-23T01:05:25+07:00*%
%TF.ProjectId,CAN_Shield,43414e5f-5368-4696-956c-642e6b696361,rev?*%
%TF.SameCoordinates,Original*%
%TF.FileFunction,Legend,Top*%
%TF.FilePolarity,Positive*%
%FSLAX46Y46*%
G04 Gerber Fmt 4.6, Leading zero omitted, Abs format (unit mm)*
G04 Created by KiCad (PCBNEW 8.0.9) date 2025-09-23 01:05:25*
%MOMM*%
%LPD*%
G01*
G04 APERTURE LIST*
G04 Aperture macros list*
%AMRoundRect*
0 Rectangle with rounded corners*
0 $1 Rounding radius*
0 $2 $3 $4 $5 $6 $7 $8 $9 X,Y pos of 4 corners*
0 Add a 4 corners polygon primitive as box body*
4,1,4,$2,$3,$4,$5,$6,$7,$8,$9,$2,$3,0*
0 Add four circle primitives for the rounded corners*
1,1,$1+$1,$2,$3*
1,1,$1+$1,$4,$5*
1,1,$1+$1,$6,$7*
1,1,$1+$1,$8,$9*
0 Add four rect primitives between the rounded corners*
20,1,$1+$1,$2,$3,$4,$5,0*
20,1,$1+$1,$4,$5,$6,$7,0*
20,1,$1+$1,$6,$7,$8,$9,0*
20,1,$1+$1,$8,$9,$2,$3,0*%
G04 Aperture macros list end*
%ADD10C,0.150000*%
%ADD11C,0.254000*%
%ADD12C,0.120000*%
%ADD13RoundRect,0.050800X-1.100000X-1.100000X1.100000X-1.100000X1.100000X1.100000X-1.100000X1.100000X0*%
%ADD14O,2.301600X2.301600*%
%ADD15RoundRect,0.140000X-0.140000X-0.170000X0.140000X-0.170000X0.140000X0.170000X-0.140000X0.170000X0*%
%ADD16C,2.700000*%
%ADD17RoundRect,0.150000X-0.875000X-0.150000X0.875000X-0.150000X0.875000X0.150000X-0.875000X0.150000X0*%
%ADD18RoundRect,0.250000X-0.450000X-0.350000X0.450000X-0.350000X0.450000X0.350000X-0.450000X0.350000X0*%
%ADD19RoundRect,0.135000X-0.135000X-0.185000X0.135000X-0.185000X0.135000X0.185000X-0.135000X0.185000X0*%
%ADD20O,0.590000X2.050000*%
%ADD21R,1.700000X1.700000*%
%ADD22O,1.700000X1.700000*%
G04 APERTURE END LIST*
D10*
X28115280Y12156174D02*
X28115280Y11128079D01*
X28115280Y11128079D02*
X28175757Y11007127D01*
X28175757Y11007127D02*
X28236233Y10946650D01*
X28236233Y10946650D02*
X28357185Y10886174D01*
X28357185Y10886174D02*
X28599090Y10886174D01*
X28599090Y10886174D02*
X28720042Y10946650D01*
X28720042Y10946650D02*
X28780519Y11007127D01*
X28780519Y11007127D02*
X28840995Y11128079D01*
X28840995Y11128079D02*
X28840995Y12156174D01*
X30110995Y10886174D02*
X29385280Y10886174D01*
X29748137Y10886174D02*
X29748137Y12156174D01*
X29748137Y12156174D02*
X29627185Y11974746D01*
X29627185Y11974746D02*
X29506233Y11853793D01*
X29506233Y11853793D02*
X29385280Y11793317D01*
X34542333Y31772420D02*
X34494714Y31724800D01*
X34494714Y31724800D02*
X34351857Y31677181D01*
X34351857Y31677181D02*
X34256619Y31677181D01*
X34256619Y31677181D02*
X34113762Y31724800D01*
X34113762Y31724800D02*
X34018524Y31820039D01*
X34018524Y31820039D02*
X33970905Y31915277D01*
X33970905Y31915277D02*
X33923286Y32105753D01*
X33923286Y32105753D02*
X33923286Y32248610D01*
X33923286Y32248610D02*
X33970905Y32439086D01*
X33970905Y32439086D02*
X34018524Y32534324D01*
X34018524Y32534324D02*
X34113762Y32629562D01*
X34113762Y32629562D02*
X34256619Y32677181D01*
X34256619Y32677181D02*
X34351857Y32677181D01*
X34351857Y32677181D02*
X34494714Y32629562D01*
X34494714Y32629562D02*
X34542333Y32581943D01*
X35494714Y31677181D02*
X34923286Y31677181D01*
X35209000Y31677181D02*
X35209000Y32677181D01*
X35209000Y32677181D02*
X35113762Y32534324D01*
X35113762Y32534324D02*
X35018524Y32439086D01*
X35018524Y32439086D02*
X34923286Y32391467D01*
X34542333Y25862420D02*
X34494714Y25814800D01*
X34494714Y25814800D02*
X34351857Y25767181D01*
X34351857Y25767181D02*
X34256619Y25767181D01*
X34256619Y25767181D02*
X34113762Y25814800D01*
X34113762Y25814800D02*
X34018524Y25910039D01*
X34018524Y25910039D02*
X33970905Y26005277D01*
X33970905Y26005277D02*
X33923286Y26195753D01*
X33923286Y26195753D02*
X33923286Y26338610D01*
X33923286Y26338610D02*
X33970905Y26529086D01*
X33970905Y26529086D02*
X34018524Y26624324D01*
X34018524Y26624324D02*
X34113762Y26719562D01*
X34113762Y26719562D02*
X34256619Y26767181D01*
X34256619Y26767181D02*
X34351857Y26767181D01*
X34351857Y26767181D02*
X34494714Y26719562D01*
X34494714Y26719562D02*
X34542333Y26671943D01*
X35399476Y26433848D02*
X35399476Y25767181D01*
X35161381Y26814800D02*
X34923286Y26100515D01*
X34923286Y26100515D02*
X35542333Y26100515D01*
X39243095Y48159181D02*
X39243095Y47349658D01*
X39243095Y47349658D02*
X39290714Y47254420D01*
X39290714Y47254420D02*
X39338333Y47206800D01*
X39338333Y47206800D02*
X39433571Y47159181D01*
X39433571Y47159181D02*
X39624047Y47159181D01*
X39624047Y47159181D02*
X39719285Y47206800D01*
X39719285Y47206800D02*
X39766904Y47254420D01*
X39766904Y47254420D02*
X39814523Y47349658D01*
X39814523Y47349658D02*
X39814523Y48159181D01*
X40243095Y48063943D02*
X40290714Y48111562D01*
X40290714Y48111562D02*
X40385952Y48159181D01*
X40385952Y48159181D02*
X40624047Y48159181D01*
X40624047Y48159181D02*
X40719285Y48111562D01*
X40719285Y48111562D02*
X40766904Y48063943D01*
X40766904Y48063943D02*
X40814523Y47968705D01*
X40814523Y47968705D02*
X40814523Y47873467D01*
X40814523Y47873467D02*
X40766904Y47730610D01*
X40766904Y47730610D02*
X40195476Y47159181D01*
X40195476Y47159181D02*
X40814523Y47159181D01*
X37432333Y31677181D02*
X37099000Y32153372D01*
X36860905Y31677181D02*
X36860905Y32677181D01*
X36860905Y32677181D02*
X37241857Y32677181D01*
X37241857Y32677181D02*
X37337095Y32629562D01*
X37337095Y32629562D02*
X37384714Y32581943D01*
X37384714Y32581943D02*
X37432333Y32486705D01*
X37432333Y32486705D02*
X37432333Y32343848D01*
X37432333Y32343848D02*
X37384714Y32248610D01*
X37384714Y32248610D02*
X37337095Y32200991D01*
X37337095Y32200991D02*
X37241857Y32153372D01*
X37241857Y32153372D02*
X36860905Y32153372D01*
X38384714Y31677181D02*
X37813286Y31677181D01*
X38099000Y31677181D02*
X38099000Y32677181D01*
X38099000Y32677181D02*
X38003762Y32534324D01*
X38003762Y32534324D02*
X37908524Y32439086D01*
X37908524Y32439086D02*
X37813286Y32391467D01*
X34542333Y29802420D02*
X34494714Y29754800D01*
X34494714Y29754800D02*
X34351857Y29707181D01*
X34351857Y29707181D02*
X34256619Y29707181D01*
X34256619Y29707181D02*
X34113762Y29754800D01*
X34113762Y29754800D02*
X34018524Y29850039D01*
X34018524Y29850039D02*
X33970905Y29945277D01*
X33970905Y29945277D02*
X33923286Y30135753D01*
X33923286Y30135753D02*
X33923286Y30278610D01*
X33923286Y30278610D02*
X33970905Y30469086D01*
X33970905Y30469086D02*
X34018524Y30564324D01*
X34018524Y30564324D02*
X34113762Y30659562D01*
X34113762Y30659562D02*
X34256619Y30707181D01*
X34256619Y30707181D02*
X34351857Y30707181D01*
X34351857Y30707181D02*
X34494714Y30659562D01*
X34494714Y30659562D02*
X34542333Y30611943D01*
X34923286Y30611943D02*
X34970905Y30659562D01*
X34970905Y30659562D02*
X35066143Y30707181D01*
X35066143Y30707181D02*
X35304238Y30707181D01*
X35304238Y30707181D02*
X35399476Y30659562D01*
X35399476Y30659562D02*
X35447095Y30611943D01*
X35447095Y30611943D02*
X35494714Y30516705D01*
X35494714Y30516705D02*
X35494714Y30421467D01*
X35494714Y30421467D02*
X35447095Y30278610D01*
X35447095Y30278610D02*
X34875667Y29707181D01*
X34875667Y29707181D02*
X35494714Y29707181D01*
X34542333Y27832420D02*
X34494714Y27784800D01*
X34494714Y27784800D02*
X34351857Y27737181D01*
X34351857Y27737181D02*
X34256619Y27737181D01*
X34256619Y27737181D02*
X34113762Y27784800D01*
X34113762Y27784800D02*
X34018524Y27880039D01*
X34018524Y27880039D02*
X33970905Y27975277D01*
X33970905Y27975277D02*
X33923286Y28165753D01*
X33923286Y28165753D02*
X33923286Y28308610D01*
X33923286Y28308610D02*
X33970905Y28499086D01*
X33970905Y28499086D02*
X34018524Y28594324D01*
X34018524Y28594324D02*
X34113762Y28689562D01*
X34113762Y28689562D02*
X34256619Y28737181D01*
X34256619Y28737181D02*
X34351857Y28737181D01*
X34351857Y28737181D02*
X34494714Y28689562D01*
X34494714Y28689562D02*
X34542333Y28641943D01*
X34875667Y28737181D02*
X35494714Y28737181D01*
X35494714Y28737181D02*
X35161381Y28356229D01*
X35161381Y28356229D02*
X35304238Y28356229D01*
X35304238Y28356229D02*
X35399476Y28308610D01*
X35399476Y28308610D02*
X35447095Y28260991D01*
X35447095Y28260991D02*
X35494714Y28165753D01*
X35494714Y28165753D02*
X35494714Y27927658D01*
X35494714Y27927658D02*
X35447095Y27832420D01*
X35447095Y27832420D02*
X35399476Y27784800D01*
X35399476Y27784800D02*
X35304238Y27737181D01*
X35304238Y27737181D02*
X35018524Y27737181D01*
X35018524Y27737181D02*
X34923286Y27784800D01*
X34923286Y27784800D02*
X34875667Y27832420D01*
X37432333Y27697181D02*
X37099000Y28173372D01*
X36860905Y27697181D02*
X36860905Y28697181D01*
X36860905Y28697181D02*
X37241857Y28697181D01*
X37241857Y28697181D02*
X37337095Y28649562D01*
X37337095Y28649562D02*
X37384714Y28601943D01*
X37384714Y28601943D02*
X37432333Y28506705D01*
X37432333Y28506705D02*
X37432333Y28363848D01*
X37432333Y28363848D02*
X37384714Y28268610D01*
X37384714Y28268610D02*
X37337095Y28220991D01*
X37337095Y28220991D02*
X37241857Y28173372D01*
X37241857Y28173372D02*
X36860905Y28173372D01*
X37765667Y28697181D02*
X38384714Y28697181D01*
X38384714Y28697181D02*
X38051381Y28316229D01*
X38051381Y28316229D02*
X38194238Y28316229D01*
X38194238Y28316229D02*
X38289476Y28268610D01*
X38289476Y28268610D02*
X38337095Y28220991D01*
X38337095Y28220991D02*
X38384714Y28125753D01*
X38384714Y28125753D02*
X38384714Y27887658D01*
X38384714Y27887658D02*
X38337095Y27792420D01*
X38337095Y27792420D02*
X38289476Y27744800D01*
X38289476Y27744800D02*
X38194238Y27697181D01*
X38194238Y27697181D02*
X37908524Y27697181D01*
X37908524Y27697181D02*
X37813286Y27744800D01*
X37813286Y27744800D02*
X37765667Y27792420D01*
X34542333Y21922420D02*
X34494714Y21874800D01*
X34494714Y21874800D02*
X34351857Y21827181D01*
X34351857Y21827181D02*
X34256619Y21827181D01*
X34256619Y21827181D02*
X34113762Y21874800D01*
X34113762Y21874800D02*
X34018524Y21970039D01*
X34018524Y21970039D02*
X33970905Y22065277D01*
X33970905Y22065277D02*
X33923286Y22255753D01*
X33923286Y22255753D02*
X33923286Y22398610D01*
X33923286Y22398610D02*
X33970905Y22589086D01*
X33970905Y22589086D02*
X34018524Y22684324D01*
X34018524Y22684324D02*
X34113762Y22779562D01*
X34113762Y22779562D02*
X34256619Y22827181D01*
X34256619Y22827181D02*
X34351857Y22827181D01*
X34351857Y22827181D02*
X34494714Y22779562D01*
X34494714Y22779562D02*
X34542333Y22731943D01*
X35399476Y22827181D02*
X35209000Y22827181D01*
X35209000Y22827181D02*
X35113762Y22779562D01*
X35113762Y22779562D02*
X35066143Y22731943D01*
X35066143Y22731943D02*
X34970905Y22589086D01*
X34970905Y22589086D02*
X34923286Y22398610D01*
X34923286Y22398610D02*
X34923286Y22017658D01*
X34923286Y22017658D02*
X34970905Y21922420D01*
X34970905Y21922420D02*
X35018524Y21874800D01*
X35018524Y21874800D02*
X35113762Y21827181D01*
X35113762Y21827181D02*
X35304238Y21827181D01*
X35304238Y21827181D02*
X35399476Y21874800D01*
X35399476Y21874800D02*
X35447095Y21922420D01*
X35447095Y21922420D02*
X35494714Y22017658D01*
X35494714Y22017658D02*
X35494714Y22255753D01*
X35494714Y22255753D02*
X35447095Y22350991D01*
X35447095Y22350991D02*
X35399476Y22398610D01*
X35399476Y22398610D02*
X35304238Y22446229D01*
X35304238Y22446229D02*
X35113762Y22446229D01*
X35113762Y22446229D02*
X35018524Y22398610D01*
X35018524Y22398610D02*
X34970905Y22350991D01*
X34970905Y22350991D02*
X34923286Y22255753D01*
X37432333Y23717181D02*
X37099000Y24193372D01*
X36860905Y23717181D02*
X36860905Y24717181D01*
X36860905Y24717181D02*
X37241857Y24717181D01*
X37241857Y24717181D02*
X37337095Y24669562D01*
X37337095Y24669562D02*
X37384714Y24621943D01*
X37384714Y24621943D02*
X37432333Y24526705D01*
X37432333Y24526705D02*
X37432333Y24383848D01*
X37432333Y24383848D02*
X37384714Y24288610D01*
X37384714Y24288610D02*
X37337095Y24240991D01*
X37337095Y24240991D02*
X37241857Y24193372D01*
X37241857Y24193372D02*
X36860905Y24193372D01*
X38337095Y24717181D02*
X37860905Y24717181D01*
X37860905Y24717181D02*
X37813286Y24240991D01*
X37813286Y24240991D02*
X37860905Y24288610D01*
X37860905Y24288610D02*
X37956143Y24336229D01*
X37956143Y24336229D02*
X38194238Y24336229D01*
X38194238Y24336229D02*
X38289476Y24288610D01*
X38289476Y24288610D02*
X38337095Y24240991D01*
X38337095Y24240991D02*
X38384714Y24145753D01*
X38384714Y24145753D02*
X38384714Y23907658D01*
X38384714Y23907658D02*
X38337095Y23812420D01*
X38337095Y23812420D02*
X38289476Y23764800D01*
X38289476Y23764800D02*
X38194238Y23717181D01*
X38194238Y23717181D02*
X37956143Y23717181D01*
X37956143Y23717181D02*
X37860905Y23764800D01*
X37860905Y23764800D02*
X37813286Y23812420D01*
X37432333Y29687181D02*
X37099000Y30163372D01*
X36860905Y29687181D02*
X36860905Y30687181D01*
X36860905Y30687181D02*
X37241857Y30687181D01*
X37241857Y30687181D02*
X37337095Y30639562D01*
X37337095Y30639562D02*
X37384714Y30591943D01*
X37384714Y30591943D02*
X37432333Y30496705D01*
X37432333Y30496705D02*
X37432333Y30353848D01*
X37432333Y30353848D02*
X37384714Y30258610D01*
X37384714Y30258610D02*
X37337095Y30210991D01*
X37337095Y30210991D02*
X37241857Y30163372D01*
X37241857Y30163372D02*
X36860905Y30163372D01*
X37813286Y30591943D02*
X37860905Y30639562D01*
X37860905Y30639562D02*
X37956143Y30687181D01*
X37956143Y30687181D02*
X38194238Y30687181D01*
X38194238Y30687181D02*
X38289476Y30639562D01*
X38289476Y30639562D02*
X38337095Y30591943D01*
X38337095Y30591943D02*
X38384714Y30496705D01*
X38384714Y30496705D02*
X38384714Y30401467D01*
X38384714Y30401467D02*
X38337095Y30258610D01*
X38337095Y30258610D02*
X37765667Y29687181D01*
X37765667Y29687181D02*
X38384714Y29687181D01*
X34542333Y23892420D02*
X34494714Y23844800D01*
X34494714Y23844800D02*
X34351857Y23797181D01*
X34351857Y23797181D02*
X34256619Y23797181D01*
X34256619Y23797181D02*
X34113762Y23844800D01*
X34113762Y23844800D02*
X34018524Y23940039D01*
X34018524Y23940039D02*
X33970905Y24035277D01*
X33970905Y24035277D02*
X33923286Y24225753D01*
X33923286Y24225753D02*
X33923286Y24368610D01*
X33923286Y24368610D02*
X33970905Y24559086D01*
X33970905Y24559086D02*
X34018524Y24654324D01*
X34018524Y24654324D02*
X34113762Y24749562D01*
X34113762Y24749562D02*
X34256619Y24797181D01*
X34256619Y24797181D02*
X34351857Y24797181D01*
X34351857Y24797181D02*
X34494714Y24749562D01*
X34494714Y24749562D02*
X34542333Y24701943D01*
X35447095Y24797181D02*
X34970905Y24797181D01*
X34970905Y24797181D02*
X34923286Y24320991D01*
X34923286Y24320991D02*
X34970905Y24368610D01*
X34970905Y24368610D02*
X35066143Y24416229D01*
X35066143Y24416229D02*
X35304238Y24416229D01*
X35304238Y24416229D02*
X35399476Y24368610D01*
X35399476Y24368610D02*
X35447095Y24320991D01*
X35447095Y24320991D02*
X35494714Y24225753D01*
X35494714Y24225753D02*
X35494714Y23987658D01*
X35494714Y23987658D02*
X35447095Y23892420D01*
X35447095Y23892420D02*
X35399476Y23844800D01*
X35399476Y23844800D02*
X35304238Y23797181D01*
X35304238Y23797181D02*
X35066143Y23797181D01*
X35066143Y23797181D02*
X34970905Y23844800D01*
X34970905Y23844800D02*
X34923286Y23892420D01*
X37432333Y25707181D02*
X37099000Y26183372D01*
X36860905Y25707181D02*
X36860905Y26707181D01*
X36860905Y26707181D02*
X37241857Y26707181D01*
X37241857Y26707181D02*
X37337095Y26659562D01*
X37337095Y26659562D02*
X37384714Y26611943D01*
X37384714Y26611943D02*
X37432333Y26516705D01*
X37432333Y26516705D02*
X37432333Y26373848D01*
X37432333Y26373848D02*
X37384714Y26278610D01*
X37384714Y26278610D02*
X37337095Y26230991D01*
X37337095Y26230991D02*
X37241857Y26183372D01*
X37241857Y26183372D02*
X36860905Y26183372D01*
X38289476Y26373848D02*
X38289476Y25707181D01*
X38051381Y26754800D02*
X37813286Y26040515D01*
X37813286Y26040515D02*
X38432333Y26040515D01*
D11*
%TO.C,U1*%
X25625900Y8636000D02*
X32512000Y8636000D01*
X25582900Y10503900D02*
X32582900Y10503900D01*
X32582900Y3103900D01*
X25582900Y3103900D01*
X25582900Y10503900D01*
X26332900Y5204000D02*
X28332900Y5204000D01*
X28332900Y3103900D01*
X26332900Y3103900D01*
X26332900Y5204000D01*
X29845000Y5207000D02*
X31845000Y5207000D01*
X31845000Y3106900D01*
X29845000Y3106900D01*
X29845000Y5207000D01*
D12*
%TO.C,C1*%
X34601164Y31332000D02*
X34816836Y31332000D01*
X34601164Y30612000D02*
X34816836Y30612000D01*
%TO.C,C4*%
X34601164Y25422000D02*
X34816836Y25422000D01*
X34601164Y24702000D02*
X34816836Y24702000D01*
%TO.C,U2*%
X36145000Y46779000D02*
X36145000Y46534000D01*
X36145000Y35009000D02*
X36145000Y35254000D01*
X40005000Y46779000D02*
X36145000Y46779000D01*
X40005000Y46779000D02*
X43865000Y46779000D01*
X40005000Y35009000D02*
X36145000Y35009000D01*
X40005000Y35009000D02*
X43865000Y35009000D01*
X43865000Y46779000D02*
X43865000Y46534000D01*
X43865000Y35009000D02*
X43865000Y35254000D01*
X35292500Y46534000D02*
X34952500Y47004000D01*
X35632500Y47004000D01*
X35292500Y46534000D01*
G36*
X35292500Y46534000D02*
G01*
X34952500Y47004000D01*
X35632500Y47004000D01*
X35292500Y46534000D01*
G37*
D10*
%TO.C,X1*%
X19719000Y28587000D02*
X19719000Y27237000D01*
X19719000Y27237000D02*
X21319000Y27237000D01*
D12*
%TO.C,R1*%
X37445359Y31342000D02*
X37752641Y31342000D01*
X37445359Y30582000D02*
X37752641Y30582000D01*
%TO.C,C2*%
X34601164Y29362000D02*
X34816836Y29362000D01*
X34601164Y28642000D02*
X34816836Y28642000D01*
D10*
%TO.C,U4*%
X39629000Y29182000D02*
X44689000Y29182000D01*
X39629000Y26142000D02*
X39629000Y29182000D01*
X44689000Y29182000D02*
X44689000Y26142000D01*
X44689000Y26142000D02*
X39629000Y26142000D01*
X39689000Y25912000D02*
G75*
G02*
X39629000Y25912000I-30000J0D01*
G01*
X39629000Y25912000D02*
G75*
G02*
X39689000Y25912000I30000J0D01*
G01*
D12*
%TO.C,C3*%
X34601164Y27392000D02*
X34816836Y27392000D01*
X34601164Y26672000D02*
X34816836Y26672000D01*
%TO.C,R3*%
X37445359Y27362000D02*
X37752641Y27362000D01*
X37445359Y26602000D02*
X37752641Y26602000D01*
%TO.C,C6*%
X34601164Y21482000D02*
X34816836Y21482000D01*
X34601164Y20762000D02*
X34816836Y20762000D01*
%TO.C,R5*%
X37445359Y23382000D02*
X37752641Y23382000D01*
X37445359Y22622000D02*
X37752641Y22622000D01*
%TO.C,R2*%
X37445359Y29352000D02*
X37752641Y29352000D01*
X37445359Y28592000D02*
X37752641Y28592000D01*
%TO.C,C5*%
X34601164Y23452000D02*
X34816836Y23452000D01*
X34601164Y22732000D02*
X34816836Y22732000D01*
%TO.C,R4*%
X37445359Y25372000D02*
X37752641Y25372000D01*
X37445359Y24612000D02*
X37752641Y24612000D01*
%TD*%
%LPC*%
D13*
%TO.C,U1*%
X27332900Y6604000D03*
D14*
X30833100Y6604000D03*
%TD*%
D15*
%TO.C,C1*%
X34229000Y30972000D03*
X35189000Y30972000D03*
%TD*%
D16*
%TO.C,MH2*%
X61500000Y52500000D03*
%TD*%
D15*
%TO.C,C4*%
X34229000Y25062000D03*
X35189000Y25062000D03*
%TD*%
D17*
%TO.C,U2*%
X35355000Y45974000D03*
X35355000Y44704000D03*
X35355000Y43434000D03*
X35355000Y42164000D03*
X35355000Y40894000D03*
X35355000Y39624000D03*
X35355000Y38354000D03*
X35355000Y37084000D03*
X35355000Y35814000D03*
X44655000Y35814000D03*
X44655000Y37084000D03*
X44655000Y38354000D03*
X44655000Y39624000D03*
X44655000Y40894000D03*
X44655000Y42164000D03*
X44655000Y43434000D03*
X44655000Y44704000D03*
X44655000Y45974000D03*
%TD*%
D18*
%TO.C,X1*%
X20619000Y28057000D03*
X22819000Y28057000D03*
X22819000Y29817000D03*
X20619000Y29817000D03*
%TD*%
D19*
%TO.C,R1*%
X37089000Y30962000D03*
X38109000Y30962000D03*
%TD*%
D15*
%TO.C,C2*%
X34229000Y29002000D03*
X35189000Y29002000D03*
%TD*%
D20*
%TO.C,U4*%
X40249000Y24892000D03*
X41519000Y24892000D03*
X42799000Y24892000D03*
X44069000Y24892000D03*
X44069000Y30432000D03*
X42799000Y30432000D03*
X41519000Y30432000D03*
X40249000Y30432000D03*
%TD*%
D16*
%TO.C,MH3*%
X3500000Y3500000D03*
%TD*%
%TO.C,MH1*%
X3500000Y52500000D03*
%TD*%
D15*
%TO.C,C3*%
X34229000Y27032000D03*
X35189000Y27032000D03*
%TD*%
D19*
%TO.C,R3*%
X37089000Y26982000D03*
X38109000Y26982000D03*
%TD*%
D16*
%TO.C,MH4*%
X61500000Y3500000D03*
%TD*%
D15*
%TO.C,C6*%
X34229000Y21122000D03*
X35189000Y21122000D03*
%TD*%
D19*
%TO.C,R5*%
X37089000Y23002000D03*
X38109000Y23002000D03*
%TD*%
%TO.C,R2*%
X37089000Y28972000D03*
X38109000Y28972000D03*
%TD*%
D15*
%TO.C,C5*%
X34229000Y23092000D03*
X35189000Y23092000D03*
%TD*%
D19*
%TO.C,R4*%
X37089000Y24992000D03*
X38109000Y24992000D03*
%TD*%
D21*
%TO.C,J1*%
X8370000Y51230000D03*
D22*
X8370000Y53770000D03*
X10910000Y51230000D03*
X10910000Y53770000D03*
X13450000Y51230000D03*
X13450000Y53770000D03*
X15990000Y51230000D03*
X15990000Y53770000D03*
X18530000Y51230000D03*
X18530000Y53770000D03*
X21070000Y51230000D03*
X21070000Y53770000D03*
X23610000Y51230000D03*
X23610000Y53770000D03*
X26150000Y51230000D03*
X26150000Y53770000D03*
X28690000Y51230000D03*
X28690000Y53770000D03*
X31230000Y51230000D03*
X31230000Y53770000D03*
X33770000Y51230000D03*
X33770000Y53770000D03*
X36310000Y51230000D03*
X36310000Y53770000D03*
X38850000Y51230000D03*
X38850000Y53770000D03*
X41390000Y51230000D03*
X41390000Y53770000D03*
X43930000Y51230000D03*
X43930000Y53770000D03*
X46470000Y51230000D03*
X46470000Y53770000D03*
X49010000Y51230000D03*
X49010000Y53770000D03*
X51550000Y51230000D03*
X51550000Y53770000D03*
X54090000Y51230000D03*
X54090000Y53770000D03*
X56630000Y51230000D03*
X56630000Y53770000D03*
%TD*%
%LPD*%
M02*
