%TF.GenerationSoftware,KiCad,Pcbnew,8.0.9*%
%TF.CreationDate,2025-09-23T01:05:25+07:00*%
%TF.ProjectId,CAN_Shield,43414e5f-5368-4696-956c-642e6b696361,rev?*%
%TF.SameCoordinates,Original*%
%TF.FileFunction,Profile,NP*%
%FSLAX46Y46*%
G04 Gerber Fmt 4.6, Leading zero omitted, Abs format (unit mm)*
G04 Created by KiCad (PCBNEW 8.0.9) date 2025-09-23 01:05:25*
%MOMM*%
%LPD*%
G01*
G04 APERTURE LIST*
%TA.AperFunction,Profile*%
%ADD10C,0.100000*%
%TD*%
G04 APERTURE END LIST*
D10*
X500000Y36500000D02*
G75*
G02*
X0Y37000000I0J500000D01*
G01*
X62000000Y56000000D02*
G75*
G02*
X65000000Y53000000I0J-3000000D01*
G01*
X65000000Y3000000D02*
X65000000Y53000000D01*
X0Y53000000D02*
X0Y37000000D01*
X46000000Y19000000D02*
X46000000Y4000000D01*
X44000000Y4000000D02*
X44000000Y19000000D01*
X3000000Y0D02*
G75*
G02*
X0Y3000000I0J3000000D01*
G01*
X3000000Y0D02*
X62000000Y0D01*
X4500000Y19500000D02*
X500000Y19500000D01*
X44000000Y19000000D02*
G75*
G02*
X46000000Y19000000I1000000J0D01*
G01*
X0Y19000000D02*
G75*
G02*
X499127Y19499999I500000J0D01*
G01*
X65000000Y3000000D02*
G75*
G02*
X62000000Y0I-3000000J0D01*
G01*
X5000000Y36000000D02*
X5000000Y20000000D01*
X0Y53000000D02*
G75*
G02*
X3000000Y56000000I3000000J0D01*
G01*
X46000000Y4000000D02*
G75*
G02*
X44000000Y4000000I-1000000J0D01*
G01*
X0Y19000000D02*
X0Y3000000D01*
X500000Y36500000D02*
X4500000Y36500000D01*
X5000000Y20000000D02*
G75*
G02*
X4500000Y19500000I-500000J0D01*
G01*
X4500000Y36500000D02*
G75*
G02*
X5000000Y36000000I0J-500000D01*
G01*
X62000000Y56000000D02*
X3000000Y56000000D01*
M02*
